<?xml version="1.0" encoding="UTF-8" standalone="no"?>
<!-- Created with sK1/UniConvertor (http://sk1project.org/) -->

<svg
   xmlns:dc="http://purl.org/dc/elements/1.1/"
   xmlns:cc="http://creativecommons.org/ns#"
   xmlns:rdf="http://www.w3.org/1999/02/22-rdf-syntax-ns#"
   xmlns:svg="http://www.w3.org/2000/svg"
   xmlns="http://www.w3.org/2000/svg"
   xmlns:sodipodi="http://sodipodi.sourceforge.net/DTD/sodipodi-0.dtd"
   xmlns:inkscape="http://www.inkscape.org/namespaces/inkscape"
   width="595.276pt"
   height="841.89pt"
   viewBox="0 0 595.276 841.89"
   fill-rule="evenodd"
   id="svg2"
   version="1.1"
   inkscape:version="0.91 r13725"
   sodipodi:docname="logo.svg"
   inkscape:export-filename="/home/cesilko/Dokumenty/NetBeans/NetCAT/8.2/logo.png"
   inkscape:export-xdpi="17.019115"
   inkscape:export-ydpi="17.019115">
  <metadata
     id="metadata62">
    <rdf:RDF>
      <cc:Work
         rdf:about="">
        <dc:format>image/svg+xml</dc:format>
        <dc:type
           rdf:resource="http://purl.org/dc/dcmitype/StillImage" />
        <dc:title />
      </cc:Work>
    </rdf:RDF>
  </metadata>
  <sodipodi:namedview
     pagecolor="#ffffff"
     bordercolor="#666666"
     borderopacity="1"
     objecttolerance="10"
     gridtolerance="10"
     guidetolerance="10"
     inkscape:pageopacity="0"
     inkscape:pageshadow="2"
     inkscape:window-width="1920"
     inkscape:window-height="1027"
     id="namedview60"
     showgrid="false"
     inkscape:zoom="1.18"
     inkscape:cx="432.1245"
     inkscape:cy="727.23994"
     inkscape:window-x="0"
     inkscape:window-y="0"
     inkscape:window-maximized="1"
     inkscape:current-layer="g12" />
  <defs
     id="defs4">
    <marker
       id="ArrowEnd"
       viewBox="0 0 10 10"
       refX="0"
       refY="5"
       markerUnits="strokeWidth"
       markerWidth="4"
       markerHeight="3"
       orient="auto">
      <path
         d="M 0 0 L 10 5 L 0 10 z"
         id="path7" />
    </marker>
    <marker
       id="ArrowStart"
       viewBox="0 0 10 10"
       refX="10"
       refY="5"
       markerUnits="strokeWidth"
       markerWidth="4"
       markerHeight="3"
       orient="auto">
      <path
         d="M 10 0 L 0 5 L 10 10 z"
         id="path10" />
    </marker>
  </defs>
  <g
     id="g12">
    <path
       style="fill:#cccccc;stroke:#000000;stroke-width:8.00094032"
       d="m 93.1238,221.91 427.1072,0 c 12.978,0 23.595,10.334 23.595,22.965 l 0,201.793 c 0,12.63 -10.617,22.964 -23.595,22.964 l -427.1072,0 c -12.9775,0 -23.5951,-10.334 -23.5951,-22.964 l 0,-201.793 c 0,-12.631 10.6176,-22.965 23.5951,-22.965 z"
       id="path18"
       inkscape:connector-curvature="0" />
    <path
       style="fill:#ffffff;stroke:none"
       d="m 160.631,182.01 -8.537,41.467 18.294,20.123 10.367,55.493 31.1,6.098 6.708,26.832 c 3.705,14.411 27.534,55.654 31.239,70.065 l 27.303,56.165 44.313,-80.903 18.497,-45.937 0.841,-24.579 17.453,-12.619 7.318,-42.077 29.271,-32.32 3.658,-92.691 -15.245,-12.196 -79.275,46.345 -48.785,1.83 -77.445,-49.395 -9.147,5.489 -7.928,62.81 z"
       id="path20"
       inkscape:connector-curvature="0" />
    <path
       style="fill:#82f0eb;stroke:#000000;stroke-width:0.21602701"
       d="m 255.571,401.63 c 0.621,1.242 5.794,21.523 7.45,29.388 1.656,7.864 14.694,23.8 14.694,23.8 l 28.146,-49.256 -21.731,-43.667 4.14,-16.143 -27.939,-6.829 9.313,25.455 -14.073,37.252 z"
       id="path22"
       inkscape:connector-curvature="0" />
    <path
       style="fill:none;stroke:#000000;stroke-width:3.66031003;stroke-linecap:round"
       d="m 235.094,292.022 -150.2888,0"
       id="path24"
       inkscape:connector-curvature="0" />
    <path
       style="fill:none;stroke:#000000;stroke-width:3.75435996;stroke-linecap:round"
       d="m 237.985,303.458 -154.1507,0"
       id="path26"
       inkscape:connector-curvature="0" />
    <path
       style="fill:none;stroke:#000000;stroke-width:3.64847994;stroke-linecap:round"
       d="m 235.094,314.894 -149.8033,0"
       id="path28"
       inkscape:connector-curvature="0" />
    <path
       style="fill:none;stroke:#000000;stroke-width:4.00047016;stroke-linecap:round"
       d="m 521.273,292.022 -202.237,0"
       id="path30"
       inkscape:connector-curvature="0" />
    <path
       style="fill:none;stroke:#000000;stroke-width:4.00047016;stroke-linecap:round"
       d="m 522.28,303.458 -207.602,0"
       id="path32"
       inkscape:connector-curvature="0" />
    <path
       style="fill:none;stroke:#000000;stroke-width:4.39770985;stroke-linecap:round"
       d="m 521.273,314.894 -202.237,0"
       id="path34"
       inkscape:connector-curvature="0" />
    <path
       style="fill:#000000;stroke:none"
       d="m 277.244,463.367 c -11.155,-11.31 -25.004,-47.16 -25.724,-61.031 4.705,-10.323 11.259,-24.726 12.153,-35.386 -5.569,-3.1 -5.642,-3.963 -7.889,-3.34 -11.013,3.057 -19.115,11.523 -29.46,14.584 5.786,-9.386 14.921,-23.211 21.567,-31.912 2.534,-3.319 -5.065,-8.679 -7.474,-12.015 -14.382,0.746 -14.787,1.272 -19.606,1.522 -1.107,-1.889 -2.215,-3.779 -3.326,-5.74 -2.684,-8.658 -2.684,-8.658 -3.74,-9.54 -3.928,-0.662 -2.82,-4.324 -4.958,-9.405 -4.027,0.209 -4.382,-1.071 -6.988,-4.036 -0.305,-5.897 -15.097,-4.697 -18.505,-2.285 -1.169,-0.3 -3.3,0.241 -3.512,-0.971 l -4.722,-27.083 c -3.62,-20.767 -5.778,-26.596 -5.961,-30.12 -5.298,-6.214 -10.202,-11.8 -16.523,-16.88 -6.686,-16.31 0.891,-37.037 5.025,-53.259 -0.158,-7.202 -0.315,-14.405 -0.401,-21.611 0.663,-5.298 1.325,-10.596 2.056,-15.97 4.969,-15.4 4.969,-15.4 7.043,-25.458 1.851,-0.457 1.561,-1.884 1.971,-3.708 1.257,-0.786 2.511,-1.644 3.764,-2.502 3.403,-5.296 8.116,-2.008 11.277,1.938 4.672,2.498 6.11,3.793 9.077,8.182 5.557,4.254 11.117,8.581 16.677,12.907 6.962,3.532 13.923,7.065 20.884,10.598 1.906,1.992 4.643,6.104 7.326,6.397 2.052,4.797 14.451,8.913 20.1,10.783 18.732,-1.693 35.262,-4.137 53.794,-1.349 11.973,-8.265 24.018,-16.533 36.064,-24.801 12.265,-9.577 24.531,-19.155 36.869,-28.736 5.753,-0.299 10.581,1.037 16.262,0.742 3.258,5.816 5.856,14.19 6.207,20.95 -2.006,9.982 1.152,18.038 2.882,27.755 0.302,5.825 0.604,11.65 0.907,17.475 -0.822,10.57 -1.655,20.924 -4.149,31.22 -1.661,4.125 -3.39,8.324 -5.119,12.524 -0.282,2.899 -0.636,5.801 -0.99,8.704 -1.148,1.502 -2.292,3.075 -3.436,4.649 -8.093,6.621 -8.093,6.621 -8.885,8.032 3.416,7.466 -9.988,5.26 -11.094,11.319 1.752,0.27 3.823,0.382 4.6,1.505 1.411,6.138 1.287,12.367 -3.466,15.933 l -7.854,0.361 c -2.041,1.531 -2.192,7.133 0.776,9.405 1.497,1.146 -0.233,3.834 -0.42,5.791 -3.075,1.89 -3.228,3.06 -3.846,6.472 l -0.449,2.475 c -0.32,1.771 0.043,3.602 0.14,5.473 l 0.093,1.798 c 0.239,4.594 0.703,8.55 -2.963,9.599 l -15.062,4.315 c -10.246,2.935 -4.992,9.417 -8.37,17.956 1.33,2.022 4.03,5.415 1.701,7.771 -10.258,1.037 -20.757,1.582 -30.709,4.334 -0.767,3.284 -5.765,4.73 -4.578,7.664 2.217,5.473 14.579,22.31 16.685,28.308 -7.059,-3.243 -19.215,-13.683 -25.043,-15.688 -4.153,-1.429 -8.462,3.087 -10.761,6.615 3.889,9.78 5.751,8.998 10.973,19.219 7.547,14.77 11.639,17.938 3.163,28.738 -7.646,9.743 -18.046,33.386 -24.053,48.813 z m 95.24,-239.496 c -1.339,-0.796 -2.679,-1.592 -4.018,-2.387 -3.452,0.179 -3.452,0.179 -5.794,-0.493 -1.255,-7.506 -4.55,-14.041 -7.023,-21.412 -1.791,-3.944 -3.654,-7.886 -5.517,-11.827 -0.437,-8.414 -1.159,-19.553 6.479,-25.213 -0.049,-0.935 -0.097,-1.869 -0.217,-2.801 -7.688,-3.639 5.381,-4.677 5.812,-8.882 1.526,-1.161 3.124,-2.325 4.718,-3.561 3.529,-1.481 13.466,-4.521 5.546,-7.066 4.854,-12.077 4.854,-12.077 5.443,-16.002 -0.643,0.106 -1.287,0.211 -1.998,0.392 -11.442,15.736 -13.525,17.287 -14.082,19.046 -3.287,1.973 -6.573,3.946 -9.856,5.991 -10.498,8.909 -17.315,15.104 -22.067,27.752 2.37,3.987 4.904,6.957 8.175,10.248 2.202,0.751 4.404,1.502 6.682,2.321 2.773,6.202 2.773,6.202 8.206,24.739 2.118,1.909 1.926,5.164 0.759,7.676 -8.055,-9.316 -16.181,-18.629 -24.308,-27.941 -6.086,-8.914 -6.086,-8.914 -12.436,-20.122 -1.02,-2.975 -1.02,-2.975 -1.268,-10.533 5.815,-1.888 10.702,-3.584 15.871,-6.809 1.366,-0.07 2.732,-0.141 4.171,-0.216 3.204,-3.555 3.204,-3.555 39.143,-33.541 3.901,-2.654 6.915,-5.695 11.748,-5.657 4.084,5.052 4.084,5.052 7.112,10.591 2.523,16.67 2.074,34.431 2.66,51.273 -0.339,12.925 -0.021,27.402 -5.241,39.354 -13.617,4.384 -13.617,4.384 -18.7,5.08 z m -103.222,24.155 c -2.863,-0.149 -6.265,-8.328 -9.177,-8.589 -20.907,-1.878 -46.369,-4.298 -67.138,-0.941 -1.022,0.165 -0.236,1.438 -1.272,1.472 l -7.759,1.763 c -2.533,0.575 -1.528,-5.834 -1.299,-8.369 2.519,-2.871 2.519,-2.871 30.484,-23.935 13.935,-9.376 13.935,-9.376 36.259,-26.614 0.338,-1.82 0.673,-3.712 1.007,-5.604 5.151,-4.954 5.151,-4.954 11.777,-9.264 20.78,-2.52 20.78,-2.52 30.848,-3.042 5.086,0.745 10.244,1.487 15.402,2.229 3.481,11.501 9.704,20.263 16.555,30.002 12.138,14.369 24.276,28.737 36.49,43.173 0.429,4.088 0.878,5.187 -3.353,4.861 -20.178,-1.556 -34.856,-2.828 -55.077,-1.59 -3.124,0.191 -5.249,2.503 -7.699,4.512 -2.635,2.161 -24.404,0.021 -26.048,-0.064 z m -84.038,-33.908 c -4.593,-2.357 -4.593,-2.357 -7.655,-2.992 -1.378,-8.509 -1.953,-19.583 -8.685,-25.651 -0.618,-3.574 -1.308,-7.143 -1.998,-10.712 -0.829,-15.965 -4.496,-46.348 12.354,-56.523 5.968,-0.31 12.589,7.783 16.466,11.619 14.111,7.921 31.478,18.845 36.722,21.241 4.544,6.975 9.16,13.946 13.78,20.989 -6.789,8.14 -13.239,14.459 -13.808,16.003 -4.268,3.899 -4.268,3.899 -34.561,24.579 -0.852,0.26 -1.7,0.592 -2.548,0.925 0.979,-3.368 2.026,-6.811 3.074,-10.254 4.625,-1.178 6.485,-12.595 12.045,-13.821 3.172,-5.572 9.769,-6.275 15.614,-7.588 5.975,-8.53 4.757,-15.317 -0.959,-24.033 -3.302,-2.497 -4.558,-3.081 -8.622,-3.591 -9.003,-6.743 -9.728,-8.22 -12.259,-9.747 -4.75,-5.378 -9.499,-10.756 -14.325,-16.202 -0.466,0.745 -1.004,1.494 -1.538,2.315 5.172,12.134 15.752,20.094 25.302,29.044 1.968,4.585 3.522,6.739 2.845,11.75 -3.179,4.059 -6.357,8.117 -9.535,12.176 -7.558,4.43 -12.294,11.814 -17.046,18.911 -1.036,3.659 -1.762,9.104 -4.663,11.562 z m -16.605,-14.28 c -2.58,-1.092 -4.6,-2.502 -7.462,-2.065 -1.332,-4.834 0.36,-9.753 4.834,-11.067 0.836,0.822 0.836,0.822 4.067,13.057 -0.432,0.022 -0.935,0.048 -1.439,0.075 z m -5.091,26.943 c -1.679,-1.788 -1.679,-1.788 -2.989,-2.008 -0.883,-3.127 -5.138,-17.039 -0.895,-17.259 0.473,4.951 3.675,15.24 8.564,6.622 1.065,-7.266 1.065,-7.266 2.258,-9.275 0.123,2.373 0.319,4.743 0.517,7.184 -1.229,4.102 -2.894,13.706 -7.455,14.736 z m 14.531,2.13 c 1.153,-2.8 3.608,-11.075 5.53,-4.613 -1.654,0.086 -4.144,3.532 -5.53,4.613 z m 47.432,38.64 c -5.775,-0.133 -11.555,-0.338 -17.334,-0.543 -1.106,-3.26 -2.216,-6.591 -3.398,-9.919 3.873,-1.787 7.101,-2.099 11.394,-2.754 0.423,1.204 0.917,2.404 1.416,3.676 9.402,4.704 11.311,6.768 14.442,-3.778 4.541,-0.019 9.083,-0.038 13.7,0.01 -1.915,4.787 -1.915,4.787 -6.443,12.016 -4.595,0.382 -9.186,0.837 -13.777,1.292 z m -24.732,23.636 c -3.306,-2.569 -6.615,-5.209 -9.925,-7.85 -2.078,0.252 -4.156,0.504 -6.306,0.76 -2.51,-9.46 -4.309,-17.731 -4.597,-27.45 1.011,0.02 2.093,0.035 3.179,0.123 2.848,7.64 2.848,7.64 6.061,13.963 3.247,4.23 5.252,5.352 7.26,7.915 1.623,0.709 1.623,0.709 14.518,0.473 -2.819,9.592 -2.819,9.592 -3.698,10.719 -1.653,-1.284 -7.677,-7.605 -8.676,-3.227 2.012,2.636 2.012,2.636 2.184,4.574 z m 40.586,31.783 c -2.803,-1.224 -11.775,-3.21 -9.24,-7.163 -1.223,0.063 -2.445,0.127 -3.672,0.118 -2.594,-2.75 -6.465,-4.793 -7.79,-8.393 l -1.511,-4.103 c -2.595,-7.052 -0.692,-7.523 -1.986,-10.497 l -0.492,-1.128 c -2.358,-5.419 -0.183,-7.706 2.076,-12.798 13.16,-0.683 13.16,-0.683 30.916,-3.119 1.705,-1.891 1.705,-1.891 2.032,-3.927 3.667,-0.19 2.032,5.808 7.12,7.995 2.648,2.386 5.299,4.845 8.022,7.299 2.959,1.433 5.918,2.866 8.952,4.367 -0.596,2.41 -1.192,4.821 -1.784,7.303 -2.329,0.986 -4.729,1.976 -7.129,2.966 -2.329,6.538 -15.496,11.259 -21.621,14.101 -2.553,2.223 -4.666,3.198 -2.776,6.273 -0.348,0.234 -0.696,0.468 -1.117,0.706 z m 40.261,11.612 c -7.214,-0.059 -14.431,-0.189 -21.648,-0.319 -3.387,-5.521 -2.971,-5.831 -1.013,-12.566 -0.48,-0.913 -1.032,-1.821 -1.587,-2.802 3.427,-3.423 3.427,-3.423 10.017,-8.451 4.955,-1.772 16.097,-6.604 19.435,-0.648 2.445,-0.127 9.108,7.387 11.441,9.285 0.591,4.439 -3.059,11.912 -6.596,14.619 -3.304,0.243 -6.676,0.563 -10.049,0.882 z m -22.713,-69.486 c 1.899,-3.703 4.721,-6.297 8.049,-8.85 8.27,0.072 16.588,-0.194 24.827,0.918 2.703,3.465 4.593,7.43 7.296,10.896 -13.904,0.721 -26.425,0.155 -40.172,-2.964 z m 51.142,61.521 c -0.888,-7.381 -1.387,-7.283 -8.064,-10.902 -2.927,-3.598 -7.553,-7.973 -11.498,-10.364 -2.307,-2.764 -4.613,-5.529 -6.92,-8.293 -0.147,-1.435 -0.293,-2.869 -0.515,-4.372 5.432,-2.301 13.024,-6.084 14.504,-12.29 2.817,-1.299 5.63,-2.671 8.443,-4.043 0.998,1.174 2,2.42 3.002,3.666 9.572,-0.352 19.216,-0.709 28.863,-0.993 0.161,3.092 0.321,6.185 0.485,9.349 l 0.075,1.438 c 0.125,2.412 0.608,5.409 -1.065,7.266 l -1.364,1.513 c -3.508,3.892 0.036,5.719 -2.428,8.778 l -2.304,2.86 c -3.985,4.948 -8.469,9.092 -13.226,13.305 -2.616,1.001 -5.304,2.005 -7.988,3.082 z m 36.211,-38.653 c -0.426,-2.645 -0.855,-5.363 -1.357,-8.077 2.771,-0.793 13.805,-2.159 13.592,-6.258 0.655,0.111 1.309,0.221 1.968,0.403 -0.973,4.882 -2.394,8.056 -4.911,12.369 -3.073,0.52 -6.147,1.04 -9.292,1.563 z m 0.41,7.911 c -0.513,-1.56 -0.513,-1.56 -0.336,-6.472 1.938,-0.173 3.948,-0.349 5.954,-0.598 0.123,2.373 -3.974,5.398 -5.618,7.07 z m 20.709,-59.48 c -3.12,-3.155 -6.744,-4.914 -8.395,-8.939 3.64,0.677 5.706,1.579 8.903,3.432 8.029,1.891 5.671,2.302 -0.508,5.507 z m -53.086,33.038 c -1.371,-4.183 -1.371,-4.183 -1.886,-8.555 2.668,0.006 5.408,0.008 8.148,0.01 2.022,4.222 7.33,2.288 10.321,0.186 9.41,-0.488 13.579,-3.538 12.901,6.83 -28.356,1.038 -28.356,1.038 -29.484,1.529 z m 81.746,-147.732 c -3.377,-3.935 -5.232,-7.732 -8.262,-10.531 2.523,-2.799 5.745,0.928 7.371,3.079 0.985,3.698 0.985,3.698 0.891,7.452 z m -145.48,45.044 c -0.443,-0.194 -0.957,-0.383 -1.475,-0.645 -5.311,-9.242 -5.311,-9.242 -4.751,-9.56 2.509,1.096 5.017,2.191 7.529,3.359 1.625,3.521 3.183,5.748 -1.303,6.846 z m 17.995,180.052 c -1.411,-0.792 -1.854,-0.986 -1.72,-2.579 2.716,0.941 5.014,0.749 1.72,2.579 z m 2.642,9.236 c -0.124,-1.003 -0.252,-2.078 -0.452,-3.149 1.515,-1.376 11.759,-9.623 10.336,-5.079 -5.123,4.088 -8.256,7.639 -9.884,8.228 z m 8.843,17.568 c -2.451,-1.387 -5.157,-2.112 -6.014,-4.735 1.416,-0.507 2.828,-1.085 4.24,-1.663 1.054,2.253 2.075,3.859 1.774,6.398 z m 8.769,16.129 c -5.97,-3.872 -11.939,-7.745 -17.98,-11.613 -0.041,-0.791 -0.082,-1.582 -0.195,-2.37 5.459,2.385 19.305,5.2 18.175,13.983 z m 5.183,2.616 c -0.022,-0.432 -0.049,-0.935 -0.075,-1.439 0.432,-0.022 0.935,-0.048 1.439,-0.074 0.022,0.431 0.048,0.935 0.074,1.438 -0.431,0.022 -0.935,0.048 -1.438,0.075 z m -0.309,7.947 c -4.593,-2.357 -24.604,-10.044 -27.593,-12.052 0.408,-3.266 0.408,-3.266 1.359,-4.397 5.734,3.524 11.545,7.117 17.356,10.709 10.279,4.947 10.279,4.947 10.316,5.666 -0.431,0.022 -0.934,0.048 -1.438,0.074 z m 3.708,1.971 c -0.548,-0.837 -0.548,-0.837 0.163,-1.018 -0.057,0.291 -0.11,0.655 -0.163,1.018 z m -5.044,13.962 c -9.101,-7.243 -20.054,-12.66 -29.593,-20.024 -0.098,-0.5 -0.196,-1 -0.366,-1.496 11.45,2.507 23.633,8.004 33.609,14.048 0.85,2.479 -1.099,6.618 -3.65,7.472 z m -4.698,6.733 c -8.876,-4.298 -17.756,-8.669 -26.635,-13.039 -0.328,-2.146 -0.655,-4.292 -1.055,-6.435 6.991,4.108 13.982,8.216 21.045,12.32 0.968,1.969 11.822,6.886 6.645,7.154 z m -3.681,12.449 c -8.448,-4.393 -13.18,-8.041 -14.867,-8.602 -1.637,-2.367 -1.637,-2.367 -3.782,-3.409 -0.291,-1.427 -0.581,-2.854 -0.943,-4.278 7.029,3.457 14.058,6.914 21.16,10.367 0.656,2.923 0.027,3.316 -1.568,5.922 z m -5.23,10.366 c -0.7,-0.973 -0.7,-0.973 -2.952,-1.289 -1.111,-1.961 -4.023,-5.271 -3.419,-7.538 2.595,1.38 5.194,2.831 7.865,4.279 -0.586,3.996 -0.586,3.996 -1.494,4.548 z"
       id="path36"
       inkscape:connector-curvature="0" />
    <path
       style="fill:#191919;stroke:none"
       d="m 190.299,373.531 0,-14.425 5.025,0 0,-16.717 19.998,0 0,16.717 5.806,0 0,14.425 -5.806,0 0,54.681 c 0,2.786 0.338,4.557 1.041,5.312 0.677,0.729 2.031,1.094 4.088,1.094 l 0.677,0 0,14.503 -12.524,0 c -4.844,0 -8.255,-1.119 -10.26,-3.332 -2.005,-2.214 -3.02,-6.354 -3.02,-12.473 l 0,-59.785 -5.025,0 z m -102.905,75.59 0,-90.015 19.529,0 0,7.552 0.312,0 c 1.667,-3.152 3.697,-5.469 6.015,-6.979 2.343,-1.484 5.077,-2.239 8.176,-2.239 4.323,0 7.552,1.275 9.713,3.854 2.161,2.577 3.255,6.405 3.255,11.482 l 0,76.345 -19.998,0 0,-69.783 c 0,-2.083 -0.261,-3.489 -0.807,-4.244 -0.521,-0.729 -1.459,-1.093 -2.76,-1.093 -1.225,0 -2.136,0.442 -2.709,1.301 -0.598,0.859 -0.885,2.213 -0.885,4.036 l 0,69.783 -19.841,0 z m 72.777,-18.149 c 0,1.979 0.287,3.385 0.834,4.244 0.573,0.834 1.484,1.251 2.76,1.251 1.25,0 2.161,-0.417 2.734,-1.251 0.547,-0.859 0.833,-2.265 0.833,-4.244 l 0,-16.872 19.842,0 0,16.716 c 0,6.51 -2.058,11.561 -6.146,15.129 -4.088,3.593 -9.843,5.39 -17.263,5.39 -8.41,0 -14.399,-1.927 -18.019,-5.807 -3.619,-3.854 -5.416,-10.468 -5.416,-19.816 l 0,-43.119 c 0,-9.452 1.771,-16.092 5.338,-19.894 3.567,-3.827 9.53,-5.728 17.94,-5.728 7.37,0 13.15,1.718 17.316,5.156 4.166,3.437 6.25,8.176 6.25,14.217 l 0,30.595 -27.003,0 0,24.033 z m 0,-54.472 0,17.003 7.161,0 0,-17.003 c 0,-1.979 -0.286,-3.385 -0.833,-4.244 -0.573,-0.834 -1.484,-1.25 -2.734,-1.25 -1.276,0 -2.187,0.416 -2.76,1.25 -0.547,0.859 -0.834,2.265 -0.834,4.244 z"
       id="path38"
       inkscape:connector-curvature="0" />
    <path
       style="fill:#82f0eb;stroke:none"
       d="m 314.279,269.433 c -1.371,-4.183 -1.371,-4.183 -1.886,-8.554 2.668,0.005 5.408,0.007 8.149,0.009 2.021,4.222 7.329,2.288 10.32,0.186 9.41,-0.488 13.579,-3.538 12.901,6.83 -28.356,1.038 -28.356,1.038 -29.484,1.529 z"
       id="path46"
       inkscape:connector-curvature="0" />
    <path
       style="fill:#82f0eb;stroke:none"
       d="m 225.491,267.55 c -5.775,-0.132 -11.555,-0.338 -17.334,-0.542 -1.106,-3.26 -2.216,-6.591 -3.399,-9.919 3.874,-1.787 7.102,-2.099 11.395,-2.754 0.423,1.204 0.917,2.404 1.416,3.676 9.401,4.704 11.311,6.768 14.441,-3.778 4.543,-0.019 9.084,-0.038 13.701,0.01 -1.915,4.787 -1.915,4.787 -6.443,12.016 -4.595,0.383 -9.186,0.837 -13.777,1.291 z"
       id="path48"
       inkscape:connector-curvature="0" />
    <path
       style="fill:#ffffff;stroke:none"
       d="m 198.239,241.421 c 2.876,-2.756 47.827,0.213 47.861,1.081 -0.111,-0.722 -45.898,-0.611 -47.861,4.035 -1.963,4.646 -2.615,-1.149 -2.615,-2.558 0,-1.409 -0.261,0.199 2.615,-2.558 z"
       id="path50"
       inkscape:connector-curvature="0" />
    <path
       style="fill:#ffffff;stroke:none"
       d="m 302.92,246.363 c 1.958,-1.952 32.545,0.15 32.569,0.765 -0.076,-0.511 -31.233,-0.432 -32.569,2.857 -1.335,3.29 -1.779,-0.813 -1.779,-1.811 0,-0.997 -0.178,0.141 1.779,-1.811 z"
       id="path52"
       inkscape:connector-curvature="0" />
    <path
       style="fill:#191919;stroke:none"
       d="m 455.343,344.939 c 0,-3.654 1.841,-5.467 5.495,-5.467 l 54.752,0 c 3.654,0 5.495,1.813 5.495,5.467 0,3.654 -1.841,5.495 -5.495,5.495 l -21.895,0 0,93.104 c 0,3.654 -1.813,5.467 -5.466,5.467 -3.654,0 -5.495,-1.813 -5.495,-5.467 l 0,-93.104 -21.896,0 c -3.654,0 -5.495,-1.841 -5.495,-5.495 z m 10.143,98.599 c 0,3.654 -1.841,5.467 -5.495,5.467 -2.634,0 -4.391,-1.246 -5.212,-3.739 l -7.874,-23.651 -39.514,0 -7.874,23.651 c -0.85,2.493 -2.578,3.739 -5.24,3.739 -0.141,0 -0.278,-0.003 -0.412,-0.009 -0.133,0.006 -0.269,0.009 -0.408,0.009 l -21.923,0 c -7.563,0 -14.049,-2.663 -19.374,-8.016 -5.354,-5.325 -8.016,-11.783 -8.016,-19.374 l 0,-54.752 c 0,-7.592 2.662,-14.05 8.016,-19.375 5.325,-5.353 11.811,-8.016 19.374,-8.016 l 21.923,0 c 3.626,0 5.467,1.813 5.467,5.467 0,3.654 -1.841,5.495 -5.467,5.495 l -21.923,0 c -4.589,0 -8.469,1.615 -11.67,4.815 -3.172,3.201 -4.758,7.082 -4.758,11.614 l 0,54.752 c 0,4.532 1.614,8.412 4.815,11.613 3.201,3.201 7.081,4.815 11.613,4.815 l 18.776,0 31.357,-94.181 c 0.992,-2.917 2.804,-4.39 5.467,-4.39 2.662,0 4.447,1.417 5.41,4.221 l 32.687,98.089 c 0.17,0.51 0.255,1.076 0.255,1.756 z m -38.352,-81.179 -16.089,48.294 32.206,0 -16.117,-48.294 z"
       id="path54"
       inkscape:connector-curvature="0" />
    <flowRoot
       xml:space="preserve"
       id="flowRoot3080"
       style="fill:black;stroke:none;stroke-opacity:1;stroke-width:1px;stroke-linejoin:miter;stroke-linecap:butt;fill-opacity:1;font-family:Sans;font-style:normal;font-weight:normal;font-size:40px;line-height:125%;letter-spacing:0px;word-spacing:0px"><flowRegion
         id="flowRegion3082"><rect
           id="rect3084"
           width="44.591633"
           height="44.591633"
           x="607.56104"
           y="306.56747" /></flowRegion><flowPara
         id="flowPara3086" /></flowRoot>    <flowRoot
       xml:space="preserve"
       id="flowRoot3799"
       style="font-size:72px;font-style:normal;font-variant:normal;font-weight:normal;font-stretch:normal;line-height:125%;letter-spacing:0px;word-spacing:0px;fill:#18eb05;fill-opacity:1;stroke:none;font-family:Ubuntu;-inkscape-font-specification:Ubuntu"
       transform="matrix(0.80000003,0,0,0.80000003,0,-3.6104905e-5)"><flowRegion
         id="flowRegion3801"><rect
           id="rect3803"
           width="115"
           height="73"
           x="554"
           y="190.36255"
           style="font-size:72px;font-style:normal;font-variant:normal;font-weight:normal;font-stretch:normal;fill:#18eb05;fill-opacity:1;font-family:Ubuntu;-inkscape-font-specification:Ubuntu" /></flowRegion><flowPara
         id="flowPara3805">22</flowPara></flowRoot>    <text
       xml:space="preserve"
       style="font-size:72px;font-style:normal;font-variant:normal;font-weight:bold;font-stretch:normal;line-height:125%;letter-spacing:0px;word-spacing:0px;fill:#000000;fill-opacity:1;stroke:none;font-family:Waree;-inkscape-font-specification:Waree Bold"
       x="568"
       y="218.36255"
       id="text3807"
       sodipodi:linespacing="125%"
       transform="matrix(0.80000003,0,0,0.80000003,0,-3.6104905e-5)"><tspan
         sodipodi:role="line"
         x="568"
         y="218.36255"
         id="tspan3811" /></text>
    <flowRoot
       xml:space="preserve"
       id="flowRoot3025"
       style="font-style:normal;font-variant:normal;font-weight:bold;font-stretch:normal;font-size:56px;line-height:125%;font-family:'Swiss911 UCm BT';-inkscape-font-specification:'Swiss911 UCm BT Bold';letter-spacing:0px;word-spacing:0px;fill:#ffffff;fill-opacity:1;stroke:none"
       transform="matrix(1.0913609,0,0,0.94736014,-195.43273,78.572579)"><flowRegion
         id="flowRegion3027"><rect
           id="rect3029"
           width="143.66197"
           height="120.42254"
           x="536.61969"
           y="153.771"
           style="font-style:normal;font-variant:normal;font-weight:bold;font-stretch:normal;font-size:56px;font-family:'Swiss911 UCm BT';-inkscape-font-specification:'Swiss911 UCm BT Bold';fill:#ffffff" /></flowRegion><flowPara
         id="flowPara3031"
         style="font-style:normal;font-variant:normal;font-weight:normal;font-stretch:normal;font-family:'Venus Rising';-inkscape-font-specification:'Venus Rising'">9.0</flowPara></flowRoot>  </g>
  <g
     id="g58" />
</svg>
