<?xml version="1.0" encoding="UTF-8"?>
<!DOCTYPE svg PUBLIC "-//W3C//DTD SVG 1.1 Tiny//EN" "http://www.w3.org/Graphics/SVG/1.1/DTD/svg11-tiny-flat.dtd">
<svg id="root" version="1.1" 
     baseProfile="tiny" 
     xmlns="http://www.w3.org/2000/svg" 
     xmlns:xlink="http://www.w3.org/1999/xlink" 
     width="100%" height="100%" viewBox="0 0 177 209" 
	 xml:space="preserve">
    <defs>
        <set xlink:href="#root" attributeName="viewBox" attributeType="XML" to="5 5 80 105" begin="0s" dur="2s" repeatCount="indefinite" end="showMoon.end+1s"/>
        <animate xlink:href="#root" attributeName="viewBox" attributeType="XML" 
            values="5 5 80 105; 0 0 177.379 209" begin="showMoon.end+1s" dur="2s" />

        <!-- <set xlink:href="#Haunted_house" attributeName="display" to="none" dur="1s" end="0.5s" /> -->
        <set xlink:href="#Moon" attributeName="display" to="none" dur="1s" fill="freeze" />
        <set xlink:href="#PumkinMedium" attributeName="display" to="none" dur="1s" repeatDur="indefinite" repeatCount="indefinite"
                end="showMoon.end+6s" />
        <set xlink:href="#PumkinBig" attributeName="display" to="none" dur="1s" repeatDur="indefinite" repeatCount="indefinite"
                end="showMoon.end+7.5s" />
        <set xlink:href="#PumkinSmall" attributeName="display" to="none" dur="1s" repeatDur="indefinite" repeatCount="indefinite"
                end="showMoon.end+8s" />
        <set xlink:href="#Tree" attributeName="display" to="none" dur="1s"  repeatDur="indefinite" repeatCount="indefinite"
                end="showMoon.end+6s" />
        <set xlink:href="#Tree_Hi_Light" attributeName="display" to="none" dur="1s"  repeatDur="indefinite" repeatCount="indefinite"
                end="showMoon.end+6.5s" />
        <set xlink:href="#TombStone" attributeName="display" to="none" dur="1s" repeatDur="indefinite" repeatCount="indefinite"
                end="showMoon.end+5.5s" />
        <set xlink:href="#TombStone_1_" attributeName="display" to="none" dur="1s" repeatDur="indefinite" repeatCount="indefinite"
                end="showMoon.end+5s" />
        <set xlink:href="#TombStone_2_" attributeName="display" to="none" dur="1s" repeatDur="indefinite" repeatCount="indefinite"
                end="showMoon.end+4.5s" />
        <set xlink:href="#TombStone_3_" attributeName="display" to="none" dur="1s" repeatDur="indefinite" repeatCount="indefinite"
                end="showMoon.end+4s" />
        <set xlink:href="#TombStone_4_" attributeName="display" to="none" dur="1s" repeatDur="indefinite" repeatCount="indefinite"
                end="showMoon.end+4s" />
        <set xlink:href="#Moon" attributeName="display" to="none" dur="1s" fill="freeze" />
        <set xlink:href="#HauntedHouseWindows" attributeName="display" to="none" begin="0s" dur="1s" repeatDur="indefinite" repeatCount="indefinite"
                end="showMoon.end+3s" />
        <set xlink:href="#halloweenTextAnim" attributeName="display" to="none" begin="0s" dur="1s" repeatDur="indefinite" repeatCount="indefinite"
                end="showMoon.end+9s" />
        <set xlink:href="#RainLayer" attributeName="display" to="none" begin="0s" dur="1s" fill="freeze" />

        <set xlink:href="#Moon" attributeName="display" to="inline" begin="showMoon.begin" dur="1s" fill="freeze" />

        <animateTransform id="showMoon" xlink:href="#Moon" attributeName="transform" attributeType="XML" type="translate"
                         values="0,50; 0,5" begin="0.2s" dur="5s" fill="freeze"/>
        <set xlink:href="#RainLayer" attributeName="display" to="inline" begin="showMoon.end+2s" dur="1s" fill="freeze" />

    </defs>

    <g id="Calque_1">
        <g id="Layer_1">
            <g id="Layer_1_1_">
                <g id="Background_1_">
                    <path id="Night_Sky" fill="#3E277E" stroke="#000000" d="M176.833,208.5h-176V0.5h176V208.5z"/>
                    <rect x="0" y="0" width="178" height="150" fill="#9C9FF3" display="none">
                        <set id="flashOne" attributeName="display" attributeType="CSS" to="inline" begin="showMoon.end+1s; flashOne.end+5s;" dur="0.2s" />
                        <set id="flashTwo" attributeName="display" attributeType="CSS" to="inline" begin="flashOne.end+0.5s;" dur="0.1s" />
                        <set id="flashThree" attributeName="display" attributeType="CSS" to="inline" begin="flashTwo.end+0.1s;" dur="0.1s" />
                    </rect>
                </g>
                <g id="Moon">
                    <path fill="#EFFA99" stroke="#ECBB07" stroke-width="3.2684" d="M64.377,36.065c0,15.042-12.194,27.236-27.236,27.236
                        S9.904,51.107,9.904,36.065S22.098,8.828,37.141,8.828S64.377,21.022,64.377,36.065z"/>
                </g>
                <path fill="black" d="M176,207H0V63c0,0-2.167-8,32.833-7c104.055,2.973,144.5,68.333,144.5,68.333L176,207z">
                    <animateColor attributeName="fill" attributeType="CSS" values="black;#1B1D0D" begin="showMoon.begin" dur="5s" fill="freeze"/>
                </path>
                <g id="Haunted_house">
                    <path id="House_Shape" d="M37.184,56.743l-3.223,0.113l-2.459,0.453L17.51,60.021l0.171-1.018l-1.944-3.431l0.709,0.054
                        l1.148,1.475l3.66-0.929l-0.893-4.123l-0.854-4.345l-0.383-2.131c-0.903-1.3-3.374,0.308-3.247-0.564
                        c0.333-2.287,1.84-4.301,2.594-5.453c1.698-2.592,3.166-7.038,3.166-7.122c0-0.085,1.413-3.505,2.092-2.092
                        c0.987,2.057,7.01,3.901,7.01,3.901l0.113,0.566l0.679,0.056l0.565-0.227l-0.17-4.579c0,0-0.283-0.509-1.47-1.017
                        c-0.562-0.242-1.382,0.084-1.017-0.453c0.961-1.413,2.261-2.261,2.261-2.261l-0.169-2.714l-0.453-0.396
                        c0,0,1.718-1.094,1.541-2.504c-0.109-0.874,2.417,1.487,2.417,1.487l1.135-0.339l-0.492-0.928l0.983-0.764l0.165-0.438
                        l-0.055-0.764l-0.662-0.384c0,0,0.004-0.047,0.509-0.734c0.247-0.336,0.596-0.997,0.679-1.415l-0.113-0.254
                        c0.254,1.272,1.696,2.289,1.696,2.289l-0.679,0.339l0.17,1.272l1.356,1.018l-0.254,1.356l0.763-0.17
                        c0,0,2.654-2.117,2.545-0.763c-0.04,0.493,0.218,0.941,1.526,1.951l-0.848,0.341c0,0,0.423,4.154-0.085,4.834
                        c-0.508,0.678,3.977,2.458,2.798,2.458c-0.849,0-1.696,0.169-1.696,0.169l-1.781,1.188l-0.085,2.799l0.933,0.085l0.17-0.679
                        c0,0,3.9-1.018,5.596-2.544c1.696-1.526,1.611-0.169,1.611-0.085c0,0.085-0.254-0.763-0.508,1.357s0.848,3.222,1.696,6.021
                        c0.443,1.463,1.917,1.992,3.392,4.155c1.272,1.866,0.236,0.938-1.441,1.357c-0.679,0.169-1.611,0.593-1.611,0.593l-0.679,0.17
                        c0,0-0.339,2.204-0.084,3.052c0.255,0.848,2.459,2.883,3.986,3.307c1.525,0.425,1.695,1.697,1.695,1.697l-2.375,0.141
                        l-3.052,0.227l-0.339,1.923l2.814,0.597l1.643,0.195l0.165-0.71l0.765-0.219l-0.638,2.851l0.339,0.338l-0.254,1.018
                        l-13.907-3.053l-1.84-0.256l-1.244-0.113l-2.035,0.057"/>
                    <g id="HauntedHouseWindows" fill="#FFCC09">
                    <path  d="M39.048,30.23l0.17,4.126l1.187,0.283v-3.788L39.048,30.23z"/>
                    <path  d="M34.017,29.609l-1.469,0.678l0.055,3.561l1.583-0.791L34.017,29.609z"/>
                    <path  d="M36.843,23.447l-0.113,3.222l1.639,0.057v-3.223C38.37,23.502,37.748,22.314,36.843,23.447z"/>
                    <path  d="M23.277,38.427l-0.114,3.957l1.583-0.056v-3.731C24.746,38.595,24.238,37.183,23.277,38.427z"/>
                    <path  d="M49.336,38.483h0.792l0.056,1.979l-0.904-0.226L49.336,38.483z"/>
                    <path  d="M48.827,45.717l0.058,2.996l1.356,0.283l-0.112-3.052C50.128,45.944,49.449,45.379,48.827,45.717z"/>
                    <path  d="M36.561,45.228h1.47l0.056,4.692l-1.696-0.114L36.561,45.228z"/>
                    <path  d="M36.448,51.201l-0.113,1.697l1.809,0.057l-0.113-1.809L36.448,51.201z"/>
                    <path  d="M29.156,45.944l-2.431,0.622l-0.226,4.24l2.487-0.17L29.156,45.944z"/>
                    <path  d="M25.029,46.848H23.05l-0.056,4.636l2.091,0.113L25.029,46.848z"/>
                    <path  d="M44.475,53.406v-1.073h1.13l0.284,1.244L44.475,53.406z"/>
                    <path  d="M44.417,54.141v0.51l1.471,0.226v-0.621L44.417,54.141z"/>
                    <path  d="M47.696,53.52l0.056,1.073l0.396,0.057v-1.13H47.696z"/>
                    <path  d="M48.884,53.406v1.245h1.13l-0.057-0.735L48.884,53.406z"/>
                    <path  d="M48.884,55.894l1.13,0.227v-0.792c0,0-0.396-0.453-1.075,0.055
                        C48.262,55.894,48.884,55.894,48.884,55.894z"/>
                    <path  d="M32.83,23.05l-0.678,0.339l0.056,1.244l0.678-0.057L32.83,23.05z"/>
                    <path  d="M32.208,24.916v1.357l0.622-0.509v-0.905L32.208,24.916z"/>
                    <path  d="M33.113,25.538v-0.791l0.283-0.113l0.056,0.792L33.113,25.538z"/>
                    <path  d="M33.168,24.124V23.05l0.339-0.113l-0.057,1.13L33.168,24.124z"/>
                    <path  d="M42.89,23.776l-1.092-0.765l-0.055,2.022l0.983-0.165L42.89,23.776z"/>
                    <path  d="M42.726,25.197l-0.93,0.271l-0.109,1.313l0.874,0.655L42.726,25.197z"/>
                    </g>

                    <path fill="#C0C7CD" d="M34.3,41.309l-2.828-2.543c0,0-5.934-6.036-6.5-6.727
                        c-2.318-2.827-0.509-0.113-0.509-0.113l9.044,9.384L34.3,41.309z"/>
                    <path fill="#C0C7CD" d="M32.548,42.215l1.469-0.284l-0.057-0.339l-1.357,0.283
                        L32.548,42.215z"/>
                    <path fill="#C0C7CD" d="M24.634,42.666H22.88l-3.392,0.903l4.239-0.282
                        L24.634,42.666z"/>
                    <path fill="#C0C7CD" d="M49.33,32.754l-4.742,10.944l0.352-0.023
                        c0,0,0.619-1.742,0.819-2.213c1.004-2.358,2.992-7.047,3.682-8.443C49.965,31.959,49.33,32.754,49.33,32.754z"/>
                    <path fill="#3E277E" d="M52.219,56.714c0,0.172-0.076,0.311-0.17,0.311c-0.093,0-0.169-0.139-0.169-0.311
                        c0-0.171,0.076-0.311,0.169-0.311C52.143,56.403,52.219,56.542,52.219,56.714z"/>
                    <path fill="#3E277E" d="M52.954,56.911c0,0.125-0.063,0.227-0.141,0.227s-0.142-0.101-0.142-0.227
                        c0-0.124,0.064-0.226,0.142-0.226C52.89,56.686,52.954,56.787,52.954,56.911z"/>
                    <path fill="#3E277E" d="M53.972,57.166c0,0.233-0.114,0.424-0.254,0.424c-0.141,0-0.255-0.191-0.255-0.424
                        c0-0.235,0.114-0.424,0.255-0.424C53.858,56.743,53.972,56.932,53.972,57.166z"/>
                    <path fill="#3E277E" d="M54.762,57.505c0,0.172-0.089,0.312-0.198,0.312c-0.11,0-0.197-0.14-0.197-0.312
                        s0.088-0.311,0.197-0.311S54.762,57.333,54.762,57.505z"/>
                    <path fill="#3E277E" d="M55.271,57.334c0,0.109-0.051,0.198-0.113,0.198c-0.063,0-0.113-0.088-0.113-0.198
                        c0-0.109,0.051-0.196,0.113-0.196S55.271,57.226,55.271,57.334z"/>
                    <path fill="#3E277E" d="M52.044,41.392c0,0.188,0.151,0.34,0.338,0.34c0.188,0,0.339-0.152,0.339-0.34
                        s-0.152-0.338-0.339-0.338C52.195,41.053,52.044,41.206,52.044,41.392z"/>
                    <path fill="#3E277E" d="M52.342,40.705c0.032-0.071,0.029-0.143-0.006-0.159l-0.519-0.236
                        c-0.036-0.018-0.091,0.027-0.124,0.098c-0.034,0.071-0.03,0.142,0.005,0.158l0.519,0.238
                        C52.253,40.821,52.309,40.775,52.342,40.705z"/>
                    <path fill="#3E277E" d="M18.697,58.071c0,0.172-0.14,0.311-0.311,0.311c-0.172,0-0.311-0.139-0.311-0.311v-0.055
                        c0-0.172,0.139-0.312,0.311-0.312c0.171,0,0.311,0.14,0.311,0.312V58.071z"/>
                    <path fill="#3E277E" d="M19.376,57.759c0,0.125-0.101,0.227-0.226,0.227s-0.227-0.101-0.227-0.227v-0.227
                        c0-0.125,0.102-0.226,0.227-0.226s0.226,0.1,0.226,0.226V57.759z"/>
                    <path fill="#3E277E" d="M20.336,57.845c0,0.172-0.139,0.312-0.311,0.312s-0.311-0.138-0.311-0.312
                        c0-0.172,0.139-0.312,0.311-0.312S20.336,57.673,20.336,57.845z"/>
                </g>
                <g id="TombStone_2_">
                    <path display="none" fill="#23075D" d="M145.034,92.21c0,0,3.109-10.432-3.005-10.932c-6.114-0.499,2.317,11.322,2.317,11.322
                        L145.034,92.21z"/>
                    <path display="none" fill="#5B79AC" d="M144.44,92.342c0,0,3.109-10.432-3.004-10.931c-6.113-0.5,2.318,11.323,2.318,11.323
                        L144.44,92.342z"/>
                    <path fill="#E7B052" d="M143.933,92.141c0,0,1.096-4.625,0.413-7.736c-0.381-1.734-1.496-2.876-3.225-2.778
                        c-4.832,0.275-3.291,8.959-4.23,10.256C135.95,93.18,143.933,92.141,143.933,92.141z"/>
                    <path fill="#3C2F12" d="M144.75,92.516c0,0,1.008-4.876,0.256-8.188c-0.42-1.844-1.565-3.077-3.305-3.007
                        c-4.861,0.19-3.131,9.42-4.051,10.777C136.73,93.451,144.75,92.516,144.75,92.516z"/>
                    <path id="Grass_2_" fill="#1B1D0D" d="M143.886,91.943l-0.593,0.097l0.515-1.205l-0.651,1.036l-0.299-0.006
                        c0,0,0.62-0.842,0.711-2.25c0.047-0.727-0.049,0.214-0.264,0.865c-0.232,0.706-0.59,1.161-0.59,1.161l-0.377,0.489
                        l-0.278-0.339l0.752-1.861l-0.858,1.638l-0.222,0.271l-0.026-1.494l-0.097,0.108l-0.083,1.215l-0.059-1.44l-0.178-1.11
                        l-0.059,0.219c0,0,0.289,2.219,0.104,2.546c-0.185,0.328-0.27-0.117-0.27-0.117l-0.648-2.17l-0.211-0.282l0.01,0.221
                        c0,0,0.666,1.729,0.584,2.17c-0.079,0.441-0.325,0.104-0.325,0.104l-0.146-0.336l-0.059,0.22l0.012,0.277l-0.49-0.55
                        l-0.063-0.072l0.257,0.616l-0.479-0.399l-0.127,0.163l-0.127,0.107l-0.474-2.249l0.027,0.663c0,0,0.212,0.917,0.228,1.291
                        c0.028,0.741-0.212,0.341-0.212,0.341l-0.274-0.284l-0.086,0.33l-0.89-0.739l-0.405-0.23l0.217,0.294
                        c0,0,0.424-0.003,0.685,0.722c0.261,0.726-0.399-0.064-0.399-0.064l-0.625-0.499l0.164,0.335c0,0,0.406,0.217,0.385,0.714
                        c-0.029,0.711,6.871,0.605,6.871,0.605l-0.844-0.408c0,0,0.066,0.052,0.28-0.421c0.204-0.452,0.726-0.882,0.726-0.882
                        S144.252,91.233,143.886,91.943z"/>
                </g>
                <g id="TombStone_4_">
                    <path display="none" fill="#23075D" d="M101.564,70.687c0,0,5.126-9.604,9.824-5.658c4.696,3.946-9.61,6.419-9.61,6.419
                        L101.564,70.687z"/>
                    <path display="none" fill="#5B79AC" d="M101.893,71.197c0,0,5.126-9.604,9.822-5.658c4.697,3.946-9.61,6.419-9.61,6.419
                        L101.893,71.197z"/>
                    <path fill="#E7B052" d="M101.792,70.602c0,0,2.477-4.058,5.148-5.789c1.49-0.965,3.086-0.993,4.246,0.293
                        c3.241,3.593-3.963,8.682-4.206,10.266C106.738,76.957,101.792,70.602,101.792,70.602z"/>
                    <path fill="#3C2F12" d="M101.549,71.103c0,0,2.714-4.175,5.576-5.999c1.596-1.017,3.275-1.087,4.465,0.185
                        c3.32,3.555-4.401,8.897-4.701,10.509C106.592,77.409,101.549,71.103,101.549,71.103z"/>
                    <path id="Grass_4_" fill="#1B1D0D" d="M102.567,71.303l0.354,0.485l0.481-1.217l-0.265,1.195l0.216,0.205
                        c0,0,0.151-1.034,1.078-2.099c0.479-0.549-0.116,0.186-0.421,0.8c-0.331,0.665-0.397,1.24-0.397,1.24l-0.075,0.612l0.438-0.045
                        l0.773-1.852l-0.541,1.769l-0.033,0.348l1.068-1.043l-0.008,0.145l-0.796,0.922l1.056-0.982l0.905-0.664l-0.112,0.197
                        c0,0-1.768,1.374-1.865,1.737c-0.1,0.363,0.273,0.106,0.273,0.106l1.989-1.085l0.349-0.052l-0.162,0.15
                        c0,0-1.688,0.761-1.94,1.131c-0.253,0.37,0.157,0.303,0.157,0.303l0.342-0.136l-0.114,0.196l-0.203,0.189l0.736-0.045
                        l0.096-0.006l-0.614,0.256l0.623,0.054l-0.025,0.203l0.015,0.167l1.918-1.267l-0.485,0.453c0,0-0.795,0.504-1.067,0.758
                        c-0.542,0.507-0.091,0.391-0.091,0.391l0.396-0.008l-0.171,0.295l1.152,0.1l0.45,0.123l-0.361,0.055
                        c0,0-0.298-0.298-0.993,0.033c-0.694,0.332,0.329,0.235,0.329,0.235l0.795,0.085l-0.354,0.124c0,0-0.439-0.132-0.774,0.237
                        c-0.479,0.526-5.312-4.403-5.312-4.403l0.888,0.304c0,0-0.084-0.009,0.097-0.497c0.174-0.465,0.104-1.137,0.104-1.137
                        S102.805,70.54,102.567,71.303z"/>
                </g>
                <g id="TombStone_3_">
                    <path display="none" fill="#23075D" d="M86.354,69.026c0,0,2.646-14.707,10.447-11.534c7.802,3.174-9.849,12.439-9.849,12.439
                        L86.354,69.026z"/>
                    <path display="none" fill="#5B79AC" d="M86.998,69.555c0,0,2.647-14.708,10.448-11.535s-9.85,12.438-9.85,12.438L86.998,69.555
                        z"/>
                    <path fill="#E7B052" d="M86.615,68.819c0,0,1.522-6.344,4.285-9.734c1.54-1.889,3.612-2.598,5.671-1.408
                        c5.75,3.327-1.516,13.013-1.166,15.185C95.754,75.035,86.615,68.819,86.615,68.819z"/>
                    <path fill="#3C2F12" d="M86.51,69.575c0,0,1.784-6.599,4.754-10.189c1.654-2,3.822-2.802,5.91-1.641
                        c5.838,3.243-1.998,13.48-1.709,15.712C95.756,75.688,86.51,69.575,86.51,69.575z"/>
                    <path id="Grass_3_" fill="#1B1D0D" d="M87.922,69.409l0.665,0.485l0.117-1.794l0.159,1.673l0.369,0.176
                        c0,0-0.237-1.415,0.522-3.196c0.393-0.92-0.073,0.292-0.213,1.222c-0.151,1.008,0.004,1.787,0.004,1.787l0.158,0.832
                        l0.551-0.242l0.231-2.746l0.038,2.54l0.104,0.469l0.959-1.813l0.05,0.192l-0.65,1.54l0.964-1.728l0.903-1.249l-0.065,0.305
                        c0,0-1.728,2.539-1.703,3.055c0.025,0.516,0.402,0.023,0.402,0.023l2.143-2.257l0.433-0.215l-0.147,0.266
                        c0,0-1.887,1.707-2.061,2.297c-0.173,0.59,0.337,0.328,0.337,0.328l0.388-0.321l-0.065,0.305l-0.187,0.333l0.941-0.37
                        l0.122-0.049l-0.695,0.594l0.835-0.191l0.055,0.277l0.09,0.211l1.972-2.464l-0.442,0.797c0,0-0.828,0.993-1.078,1.44
                        c-0.496,0.891,0.047,0.548,0.047,0.548l0.515-0.176l-0.101,0.457l1.55-0.355l0.641-0.03l-0.448,0.226
                        c0,0-0.517-0.266-1.283,0.461c-0.771,0.727,0.527,0.168,0.527,0.168l1.074-0.225l-0.406,0.31c0,0-0.633,0.015-0.914,0.638
                        c-0.402,0.89-8.793-3.513-8.793-3.513l1.286,0.023c0,0-0.113,0.023-0.083-0.69c0.029-0.68-0.342-1.529-0.342-1.529
                        S87.912,68.311,87.922,69.409z"/>
                </g>
                <g id="TombStone_1_">
                    <path display="none" fill="#23075D" d="M35.091,148.632c0,0-21.825-39.128,2.292-46.604
                        c24.118-7.474,0.814,47.561,0.814,47.561L35.091,148.632z"/>
                    <path display="none" fill="#5B79AC" d="M37.589,148.632c0,0-21.825-39.128,2.292-46.604
                        c24.117-7.474,0.814,47.561,0.814,47.561L37.589,148.632z"/>
                    <path fill="#E7B052" d="M35.303,147.652c0,0-8.534-17.602-8.573-30.711c-0.021-7.309,3.435-12.894,10.471-14.044
                        c19.655-3.221,21.224,33.048,26.168,37.419C68.312,144.688,35.303,147.652,35.303,147.652z"/>
                    <path fill="#614E27" d="M36.496,149.605c0,0-8.409-18.688-8.349-32.656c0.034-7.786,3.535-13.763,10.585-15.044
                        c19.697-3.579,20.995,35.054,25.909,39.674C69.556,146.197,36.496,149.605,36.496,149.605z"/>
                    <path id="Grass_1_" fill="#1B1D0D" d="M39.456,146.534l2.462-0.14l-3.139-4.381l3.547,3.575l1.191-0.295
                        c0,0-3.239-2.831-4.865-8.403c-0.84-2.873,0.382,0.816,1.828,3.237c1.566,2.627,3.406,4.138,3.406,4.138l1.951,1.627
                        l0.816-1.607l-4.683-6.809l4.918,5.812l1.129,0.894l-1.224-6.024l0.477,0.352l1.419,4.808l-1.052-5.836l-0.279-4.617
                        l0.427,0.834c0,0,0.824,9.171,1.86,10.318c1.037,1.148,0.977-0.711,0.977-0.711l0.673-9.309l0.592-1.316l0.16,0.896
                        c0,0-1.128,7.543-0.407,9.24c0.72,1.694,1.404,0.119,1.404,0.119l0.287-1.478l0.427,0.832l0.203,1.122l1.481-2.646l0.191-0.345
                        l-0.482,2.696l1.57-2.029l0.65,0.542l0.61,0.317l-0.115-9.463l0.485,2.689c0,0-0.027,3.875,0.245,5.389
                        c0.542,3.008,1.146,1.183,1.146,1.183l0.856-1.384l0.64,1.248l2.914-3.771l1.427-1.289l-0.616,1.383
                        c0,0-1.696,0.361-2.097,3.508c-0.401,3.146,1.547-0.616,1.547-0.616l2.061-2.562l-0.353,1.491c0,0-1.436,1.235-0.906,3.215
                        c0.757,2.829-27.066,8.576-27.066,8.576l3.025-2.392c0,0-0.218,0.269-1.505-1.441c-1.226-1.631-3.7-2.895-3.7-2.895
                        S37.343,144.011,39.456,146.534z"/>
                </g>
                <g id="PumkinMedium">
                    <path fill="#BE580A" stroke="#301406" stroke-width="0.6779" d="M152.883,153.676l1.828,0.281l1.961,0.914
                        c0,0,10.679,6.09,12.274,14.161c1.601,8.069-6.007,16.733-11.725,18.276c-5.779,1.561-12.951,3.996-25.521-1.004
                        c-15.063-2.554-20.177-11.896-14.779-26.229c6.935-16.104,26.656-8.936,26.656-8.936L152.883,153.676z"/>
                    <path fill="#CA610B" d="M153.608,156.518c16.555,13.144,10.34,24.797,10.34,24.797s-0.144,0.242-0.371,0.635
                        c-1.535,2.604-0.738,2.105,0.279,0.701c9.004-12.408-10.734-27.146-10.734-27.146L153.608,156.518z"/>
                    <path fill="#A15209" d="M154.038,155.792c0,0,17.043,13.489,4.92,29.324c-0.711,0.928-1.332,1.214-1.332,1.214
                        s11.179-13.771-3.371-29.676C151.558,153.709,154.038,155.792,154.038,155.792z"/>
                    <path fill="#CA610B" d="M152.566,156.648c0,0,16.886,14.518,4.761,30.353c-0.711,0.929-0.867,0.261-0.867,0.261
                        s10.873-13.847-3.678-29.751C150.086,154.564,152.566,156.648,152.566,156.648z"/>
                    <path fill="#A0540D" d="M152.239,155.258c0,0,13.043,14.26-0.17,33.424c-0.597,0.863-0.638,0.131-0.638,0.131
                        s11.772-18.023,1.14-32.76C151.095,154.009,152.239,155.258,152.239,155.258z"/>
                    <path fill="#CA610B" d="M150.881,155.104c0,0,13.041,14.261-0.172,33.424c-0.597,0.863-0.639,0.132-0.639,0.132
                        s11.771-18.024,1.141-32.761C149.737,153.855,150.881,155.104,150.881,155.104z"/>
                    <path fill="#CA610B" d="M148.482,154.031c0,0,5.979,27.162-9.433,33.015c-2.211,0.837,2.55,0.077,2.55,0.077
                        s12.631-6.991,7.582-32.577c-2.938-14.874-0.524-0.838-0.524-0.838"/>
                    <path fill="#A25D0E" d="M149.838,154.186c0,0,5.979,27.162-9.432,33.016c-2.213,0.837,2.551,0.076,2.551,0.076
                        s12.629-6.99,7.58-32.576c-2.938-14.874-0.524-0.84-0.524-0.84"/>
                    <path fill="#A15319" d="M144.2,152.904c0,0-5.818,6.796-7.324,10.563c-1.504,3.77-3.846,12.547-6.599,19.527
                        c-0.917,2.33,4.415-7.75,5.248-15.848c0.827-8.047,7.776-13.844,7.776-13.844l0.949-0.634"/>
                    <path fill="#CA610B" d="M145.557,153.057c0,0-5.818,6.797-7.324,10.565c-1.505,3.769-3.846,12.545-6.598,19.526
                        c-0.918,2.33,4.414-7.75,5.246-15.848c0.828-8.047,7.777-13.843,7.777-13.843l0.948-0.634"/>
                    <path fill="#CA610B" d="M143.34,152.538c0,0-18.373,12.593-17.404,24.291c0.968,11.7-0.916,3.235-0.916,3.235l-0.301-3.231
                        c0,0,0.648-13.062,17.389-23.753c16.739-10.691,1.28-0.659,1.28-0.659"/>
                    <path fill="#AC5316" d="M141.983,152.385c0,0-18.374,12.594-17.404,24.291c0.969,11.7-0.916,3.236-0.916,3.236l-0.301-3.232
                        c0,0,0.648-13.062,17.389-23.753c16.738-10.692,1.281-0.659,1.281-0.659"/>
                    <path fill="#CA610B" d="M141.333,152.93c0,0-25.109,3.08-21.953,21.48c0.354,2.068,1.025,0.859,0.939-0.053
                        c-1.529-15.979,21.975-22.121,21.975-22.121L141.333,152.93z"/>
                    <path fill="#8B4B07" stroke="#8A520A" stroke-width="0.6779" d="M166.148,172.025c0.677,8.938-12.739,18.434-7.558,14.072
                        c0.854-0.721-1.19,1.484,2.173-1.119c6.286-4.869,15.674-15.715-2.897-29.494C157.866,155.484,165.36,161.618,166.148,172.025z
                        "/>
                    <path fill="#854509" stroke="#8A520A" stroke-width="0.339" d="M118.95,164.059c-4.728,9.986,3.285,21.521-0.148,15.674
                        c-0.396-0.678-6.129-6.732-1.879-18.121c1.955-5.235,7.397-14.174,21.966-10.994
                        C138.886,150.615,126.228,148.676,118.95,164.059z"/>
                    <path fill="blue" d="M142.058,167.105c0,0-6.737,0.233-8.69-0.558c-1.953-0.794-1.926-9.647-1.926-9.647
                        S139.102,166.729,142.058,167.105z">
                        <animateColor attributeName="fill" attributeType="CSS" values="#FEFB6D;#FF880C;#FEFB6D" begin="3s" dur="2s" repeatDur="indefinite" />
                    </path>
                    <path fill="#F9FA5E" d="M154.409,171.273c1.232-0.994,5.496-6.148,3.83-8.65c0,0-6.216,5.684-13.572,5.057
                        c-0.225-0.017-0.574-0.195-0.601-0.037C143.801,169.299,154.204,171.441,154.409,171.273z">
                        <animateColor attributeName="fill" attributeType="CSS" values="#FEFB6D;#FF880C;#FEFB6D" begin="3s" dur="2s" repeatDur="indefinite" />
                    </path>
                    <path fill="#D34808" d="M132.875,157.777l-0.104,2.434l0.345,2.994l0.934,1.811l1.472,1.076l2.905,0.442l2.349-0.646
                        l1.361,0.536c0,0-12.179,5.634-10.616-10.204C131.629,155.08,132.875,157.777,132.875,157.777z"/>
                    <path fill="#FF880C" d="M132.797,158.456l-0.104,2.433l0.347,2.995l0.933,1.812l1.471,1.076l2.907,0.44l2.347-0.644
                        l1.361,0.537c0,0-12.179,5.633-10.616-10.205C131.554,155.758,132.797,158.456,132.797,158.456z"/>
                    <path fill="#D34808" d="M156.624,163.469l-0.104,1.924l-0.777,1.844l-1.086,1.584l-2.136,0.783l-3.058-0.119l-3.715-2.353
                        l-1.697-0.077c0,0,11.896,10.989,14.568-4.154C158.936,161.115,156.624,163.469,156.624,163.469z"/>
                    <path fill="#FF880C" d="M156.545,164.148l-0.104,1.922l-0.775,1.845l-1.088,1.583l-2.137,0.783l-3.057-0.117l-3.717-2.354
                        l-1.695-0.076c0,0,11.896,10.984,14.566-4.156C158.859,161.794,156.545,164.148,156.545,164.148z"/>
                    <path fill="none" stroke="#301406" stroke-width="0.6779" d="M152.883,153.676l1.828,0.281l1.961,0.914
                        c0,0,10.679,6.09,12.274,14.161c1.601,8.069-6.007,16.733-11.725,18.276c-5.779,1.561-12.951,3.996-25.521-1.004
                        c-15.063-2.554-20.177-11.896-14.779-26.229c6.935-16.104,26.656-8.936,26.656-8.936L152.883,153.676z"/>
                    <path fill="#776751" stroke="#000000" stroke-width="0.6779" d="M148.174,141.602l3.97-0.404l3.33,0.717l-0.247,2.189
                        l-2.059,0.107l-1.668,1.178c0,0-3.396,2.856,0.689,6.426c2.928,0.806,5.874,4.477,5.874,4.477s-5.188-2.905-8.448-3.27
                        c-3.125-1.033-4.979-1.244-6.895-0.879c-2.501-0.951-3.163-1.479-3.163-1.479S144.133,141.145,148.174,141.602z"/>
                    <path fill="#371C22" d="M145.667,144.473c-0.111-0.521,2.252-2.27,3.655-1.945c0.659-0.367,4.316,0.031,4.316,0.031
                        s-5.322,1.354-4.343,3.077c0.391,1.765-1.153,0.829-0.709,3.402c0.369,0.637,0.764,1.333,0.764,1.333l3.109,2.629l-4.178-1.268
                        c0,0-0.849-0.551-1.085-1.219c-0.729-0.714-0.059-1.744-0.059-1.744l0.229-2.029l-3.015,3.525l0.604-2.32l-2.555,1.753
                        c0,0,0.188-1.767,0.835-2.488c0.527-1.554,1.738-0.851,2.296-1.358C145.813,145.6,145.777,144.994,145.667,144.473z"/>
                    <path fill="#FFFC5A" d="M129.018,165.732c0,0-1.031,11.986,1.697,12.767c0.72,0.205,2.091-2.474,2.091-2.474l0.245,2.857
                        l0.783,2.137l1.457,1.188l1.887-0.583l2.049-2.031l0.682,3.033l3.729,1.206l2.584-0.732l2.676-3.553l0.407,3.445
                        c0,0,5.688-0.893,7.539-9.383c0.082-0.381-1.758,1.123-1.963,1.258c-1.485,1.093-2.816,1.796-2.816,1.796l-2.49,0.913
                        l-2.584,0.22l-3.207,4.243l-0.646-4.85l-2.134-0.239l-2.008-0.353l-2.865,3.725l-0.764-4.816l-1.473-1.063l-1.869-1.574
                        l-1.755-2.586L129.018,165.732z">
                        <animateColor attributeName="fill" attributeType="CSS" values="#FEFB6D;#FF880C;#FEFB6D" begin="3s" dur="2s" repeatDur="indefinite" />
                    </path>
                    <path fill="#D34808" d="M130.047,167.016l-0.4-0.981c0,0-1.324,17.528,3.298,11.563c0.354-0.459-0.517,0.525-0.517,0.525
                        l-0.514-0.713c0,0-2.229-2.676-1.299-8.624C130.661,168.497,130.047,167.016,130.047,167.016z"/>
                    <path fill="#FF880C" d="M129.37,166.938l-0.399-0.981c0,0-1.326,17.528,3.297,11.563c0.354-0.459-0.519,0.525-0.519,0.525
                        l-0.513-0.712c0,0-2.226-2.676-1.299-8.625C129.982,168.42,129.37,166.938,129.37,166.938z"/>
                    <path fill="#D34808" d="M133.661,176.531l-0.76-0.842c0,0,0.462,10.285,6.182,3.426c0.371-0.445-4.078,3.634-4.828-0.289
                        C134.077,177.896,133.661,176.531,133.661,176.531z"/>
                    <path fill="#FF880C" d="M133.583,177.211l-0.758-0.843c0,0,0.461,10.286,6.18,3.427c0.373-0.445-4.074,3.633-4.828-0.289
                        C133.999,178.574,133.583,177.211,133.583,177.211z"/>
                    <path fill="#D34808" d="M146.978,180.178l1.742-1.082c0,0-1.952,6.221-8.767,3.12c-0.529-0.239,3.407,1.164,5.81-0.596
                        C146.528,181.063,146.978,180.178,146.978,180.178z"/>
                    <path fill="#FF880C" d="M146.902,180.855l1.742-1.082c0,0-1.953,6.221-8.767,3.121c-0.53-0.239,3.408,1.166,5.81-0.597
                        C146.452,181.74,146.902,180.855,146.902,180.855z"/>
                    <path fill="#D34808" d="M156.305,173.048c0,0-1.168,8.068-7.344,9.905c-0.823,0.244-0.25,0.199-0.25,0.199l-0.284-1.51
                        c0,0,3.812-0.305,6.438-7.436"/>
                    <path fill="#FF880C" d="M156.984,173.125c0,0-1.168,8.068-7.342,9.905c-0.826,0.243-0.251,0.198-0.251,0.198l-0.284-1.511
                        c0,0,3.812-0.303,6.438-7.435"/>
                </g>
                <defs>
                    <g id="TreeShape">
                    <path d="M139.702,23.276c0,0-0.509-4.948-9.548-9.744
                        c-9.038-4.795,5.25,2.324,5.25,2.324l-1.438-3.351c0,0,3.468,3.101,5.76,7.953c2.293,4.851,1.434-6.671,1.434-6.671
                        s1.48,9.777-0.771,12.712"/>
                    <path d="M123.125,22.683c0,0-7.465-7.244-5.896-13.809
                        c1.426-5.99-0.718,2.994-0.718,2.994s-2.356-3.112-4.849-2.744c-0.523,0.077,4.062,1.096,4.602,3.918
                        c0.888,4.668,4.986,8.944,4.986,8.944L123.125,22.683z"/>
                    <path d="M122.353,24.015c-18.963-12.267-29.127-3.535-25.894-5.726
                        c3.229-2.19,9.9-2.453,9.9-2.453s-7.521-9.499-2.513-3.526c3.784,4.514,16.806,9.285,16.806,9.285"/>
                    <path d="M82.79,34.225l-17.111-2.723l-1.998,0.061l-2.275,0.404
                        l-1.705-0.378l1.583-0.226c0,0,0.863-0.54,2.937-0.392c2.073,0.147-5.68-2.396-5.752-4.644
                        c-0.07-2.249,1.001,5.32,18.795,5.917c17.792,0.597-6.041,2.312-4.2-4.679c0.589-2.238,0.461,0.562,0.461,0.562l0.58,1.166
                        l0.536,0.77l1.611,0.946l1.964,0.809l6.544,1.176l-2.662,1.41"/>
                    <path d="M96.991,88.794l5.536-1.422l4.974,1.987
                        c0,0,8.806,6.896,5.646-8.797c-0.177-0.888-0.434-1.686-0.473-2.416c-0.219-4.116,2.332-4.182,2.332-4.182
                        s24.428-15.525,16.426-23.262c-0.537-0.522,0.607-3.693,0.607-3.693s-16.906-22.385-48.188-13.191
                        c-6.152,1.807,5.072-2.938,8.857-3.501c12.771-1.9,26.68-0.246,40.582,13.106l0.828-5.699c0,0-0.324-6.084-11.244-13.524
                        c-10.922-7.44,11.762,3.688,12.789,10.861c1.026,7.171,4.553-14.229,4.183-13.317c-0.372,0.912,1.69,11.172-2.687,17.648
                        c-4.384,6.476,0.67,13.338,0.67,13.338s4.135-18.382,25.885-14.992c21.75,3.388-7-3.099-14.174,2.916
                        c-7.176,6.015,4.162-6.171,3.793,6.801c-0.114,4.053,0.633,4.275,1.375,3.728c1.623-1.203,4.058-8.048,6.654-7.219
                        c3.777,1.206,9.375-0.595,9.375-0.595l-4.462,1.599l6.849,2.683c0,0-10.349-4.233-12.227-2.208
                        c-1.879,2.025-5.402,10.003-7.518,8.098c-2.118-1.905-1.787-10.604-6.213-10.555c-4.431,0.049-7.383,13.957-8.873,20.326
                        c-1.489,6.367-16.42,3.129-14,19.284c2.418,16.155,13.119,14.222,13.119,14.222l8.709,7.465L96.991,88.794z"/>
                    <path d="M131.387,48.944l-14.396-6.458l-1.38-0.814l-5.373-5.794
                        l3.542,5.302l-10.375-2.05l-6.824,1.209l6.547-0.525l12.855,3.431l-4.408,1.949l-3.438,4.102l-0.612,3.059l-2.267,1.67
                        l2.838-1.138l0.281-1.704l1.271,1.668l0.096-1.249l-0.599-1.071l0.205-1.229l2.587-2.297l0.936,0.349l0.373,1.423l0.871,1.748
                        l1.495,0.976l-0.458-1.242l-0.796-1.201l-0.549-1.355l-0.026-1.171l0.139-0.853l2.971-1.261l2.996,0.592l5.845,3.396
                        l4.405,2.087l2.104,1.319L131.387,48.944z"/>
                    </g>
                </defs>

                <g id="Tree_Hi_Light">
                    <use xlink:href="#TreeShape" fill="#4A609D" stroke="#5261A5" stroke-width="0.3068" />
                </g>
                <g id="Tree">
                    <use xlink:href="#TreeShape" fill="black" stroke="#000000" stroke-width="0.3068" x="1" y="1"/>
                </g>

                <g id="TombStone">
                    <path fill="#23075D" d="M117.611,184.759c0,0,45.617-81.782-4.792-97.406c-50.407-15.621-1.701,99.406-1.701,99.406
                        L117.611,184.759z"/>
                    <path fill="#5B79AC" d="M116.603,184.759c0,0,45.617-81.782-4.792-97.406c-50.407-15.621-1.702,99.406-1.702,99.406
                        L116.603,184.759z"/>
                    <path fill="#FFDE82" d="M109.454,186.798c0,0,17.575-39.063,17.45-68.259c-0.071-16.273-7.389-28.765-22.124-31.443
                        c-41.167-7.48-43.88,73.268-54.153,82.923C40.354,179.67,109.454,186.798,109.454,186.798z"/>
                    <path fill="#776A34" d="M110.461,186.798c0,0,17.574-39.063,17.449-68.259c-0.07-16.273-7.39-28.765-22.123-31.443
                        c-41.167-7.48-43.88,73.268-54.155,82.923C41.362,179.67,110.461,186.798,110.461,186.798z"/>
                    <path id="Grass" fill="#1B1D0D" d="M104.274,180.375l-5.146-0.292l6.563-9.153l-7.413,7.473l-2.487-0.613
                        c0,0,6.771-5.917,10.168-17.564c1.756-6.009-0.801,1.709-3.819,6.767c-3.274,5.493-7.119,8.647-7.119,8.647l-4.078,3.399
                        l-1.705-3.363l9.787-14.229l-10.28,12.148l-2.359,1.866l2.557-12.593l-0.997,0.73l-2.966,10.045l2.199-12.194l0.583-9.649
                        l-0.892,1.74c0,0-1.722,19.168-3.888,21.566c-2.167,2.402-2.042-1.483-2.042-1.483l-1.406-19.454l-1.236-2.753l-0.336,1.875
                        c0,0,2.358,15.769,0.852,19.313s-2.935,0.252-2.935,0.252l-0.599-3.088l-0.892,1.738l-0.423,2.346l-3.096-5.533l-0.401-0.719
                        l1.007,5.637l-3.281-4.242l-1.359,1.133l-1.275,0.663l0.242-19.776l-1.014,5.625c0,0,0.057,8.1-0.513,11.262
                        c-1.133,6.287-2.396,2.471-2.396,2.471l-1.789-2.893l-1.337,2.607l-6.09-7.879l-2.982-2.693l1.286,2.887
                        c0,0,3.545,0.758,4.384,7.332c0.837,6.574-3.234-1.289-3.234-1.289l-4.308-5.355l0.738,3.119c0,0,3.001,2.583,1.894,6.721
                        c-1.583,5.912,56.571,17.924,56.571,17.924l-6.323-4.994c0,0,0.455,0.559,3.146-3.019c2.563-3.407,7.733-6.047,7.733-6.047
                        S108.691,175.102,104.274,180.375z"/>
                </g>
                <g id="PumkinBig">
                    <path fill="#BE580A" stroke="#301406" stroke-width="0.9541" d="M26.919,151.93l-2.586,0.305l-2.802,1.189
                        c0,0-15.321,8.039-17.967,19.313c-2.647,11.271,7.625,23.834,15.59,26.285c8.053,2.479,18.02,6.26,35.944-0.153
                        c21.312-2.845,28.966-15.733,22.081-36.16c-8.958-22.991-37.051-13.879-37.051-13.879L26.919,151.93z"/>
                    <path fill="#CA610B" d="M25.759,155.891C1.828,173.559,9.993,190.259,9.993,190.259s0.189,0.347,0.493,0.908
                        c2.028,3.74,0.933,3.001-0.43,0.976c-12.051-17.898,16.438-37.65,16.438-37.65L25.759,155.891z"/>
                    <path fill="#A15209" d="M25.191,154.848c0,0-24.637,18.135-8.367,41.004c0.955,1.342,1.812,1.772,1.812,1.772
                        s-15.04-19.923,6.208-41.574C28.781,152.041,25.191,154.848,25.191,154.848z"/>
                    <path fill="#CA610B" d="M27.22,156.127c0,0-24.466,19.586-8.194,42.456c0.955,1.34,1.208,0.408,1.208,0.408
                        s-14.609-20.013,6.641-41.662C30.809,153.318,27.22,156.127,27.22,156.127z"/>
                    <path fill="#A0540D" d="M27.748,154.186c0,0-19.047,19.412-1.41,47.021c0.796,1.244,0.89,0.216,0.89,0.216
                        s-15.668-25.934,0.015-46.133C29.418,152.486,27.748,154.186,27.748,154.186z"/>
                    <path fill="#CA610B" d="M29.665,154.037c0,0-19.047,19.412-1.409,47.02c0.795,1.244,0.89,0.217,0.89,0.217
                        s-15.668-25.935,0.015-46.133C31.336,152.338,29.665,154.037,29.665,154.037z"/>
                    <path fill="#CA610B" d="M33.092,152.646c0,0-9.748,37.91,11.639,46.898c3.068,1.287-3.59-0.018-3.59-0.018
                        s-17.421-10.455-9.057-46.193c4.864-20.775,0.78-1.15,0.78-1.15"/>
                    <path fill="#A25D0E" d="M31.175,152.796c0,0-9.749,37.909,11.638,46.9c3.069,1.287-3.589-0.019-3.589-0.019
                        s-17.42-10.454-9.057-46.192c4.864-20.776,0.781-1.151,0.781-1.151"/>
                    <path fill="#A15319" d="M39.17,151.271c0,0,7.849,9.848,9.781,15.221c1.931,5.375,4.79,17.836,8.316,27.793
                        c1.176,3.322-5.826-11.119-6.599-22.547c-0.767-11.362-10.255-19.855-10.255-19.855l-1.304-0.938"/>
                    <path fill="#CA610B" d="M37.253,151.42c0,0,7.849,9.848,9.781,15.221c1.931,5.375,4.79,17.836,8.316,27.793
                        c1.176,3.322-5.826-11.119-6.599-22.547c-0.767-11.361-10.255-19.854-10.255-19.854l-1.305-0.938"/>
                    <path fill="#CA610B" d="M40.396,150.8c0,0,25.223,18.618,23.282,35.024c-1.938,16.41,1.129,4.598,1.129,4.598l0.583-4.531
                        c0,0-0.268-18.404-23.286-34.269c-23.016-15.863-1.769-0.989-1.769-0.989"/>
                    <path fill="#AC5316" d="M42.313,150.65c0,0,25.223,18.619,23.282,35.023c-1.939,16.41,1.128,4.6,1.128,4.6l0.583-4.532
                        c0,0-0.268-18.403-23.285-34.269c-23.017-15.867-1.77-0.988-1.77-0.988"/>
                    <path fill="#CA610B" d="M43.204,151.449c0,0,35.167,5.57,29.817,31.296c-0.602,2.894-1.485,1.159-1.319-0.117
                        c2.94-22.399-29.818-32.201-29.818-32.201L43.204,151.449z"/>
                    <path fill="#8B4B07" stroke="#8A520A" stroke-width="0.9541" d="M7.357,177.084c-1.391,12.538,17.01,26.557,9.936,20.166
                        c-1.165-1.053,1.601,2.148-3.002-1.682c-8.603-7.159-21.269-22.875,5.532-41.34C19.822,154.229,8.978,162.486,7.357,177.084z"
                        />
                    <path fill="#854509" stroke="#8A520A" stroke-width="0.4771" d="M74.136,168.206c6.154,14.28-5.683,30.106-0.565,22.054
                        c0.592-0.933,8.954-9.17,3.536-25.395c-2.491-7.463-9.706-20.301-30.349-16.551C46.758,148.314,64.657,146.213,74.136,168.206z
                        "/>
                    <path fill="red" d="M41.483,171.354c0,0,9.464,0.662,12.25-0.354c2.786-1.02,3.186-13.477,3.186-13.477
                        S45.659,170.966,41.483,171.354z">
                        <animateColor attributeName="fill" attributeType="CSS" values="#FEFB6D;#FF880C;#FEFB6D" begin="2s" dur="3.5s" repeatDur="indefinite" />
                    </path>
                    <path fill="#F9FA5E" d="M23.906,176.607c-1.685-1.461-7.427-8.922-4.961-12.358c0,0,8.462,8.302,18.842,7.783
                        c0.314-0.015,0.817-0.246,0.845-0.024C38.92,174.352,24.187,176.852,23.906,176.607z">
                        <animateColor attributeName="fill" attributeType="CSS" values="#FEFB6D;#FF880C;#FEFB6D" begin="2s" dur="3.5s" repeatDur="indefinite" />
                    </path>
                    <path fill="#D34808" d="M54.858,158.686l0.026,3.43l-0.632,4.193l-1.401,2.5l-2.122,1.44l-4.11,0.479l-3.269-1.023
                        l-1.941,0.689c0,0,16.85,8.521,15.436-13.83C56.743,154.952,54.858,158.686,54.858,158.686z"/>
                    <path fill="#FF880C" d="M54.932,159.646l0.026,3.426l-0.632,4.195l-1.401,2.5l-2.122,1.439l-4.11,0.479l-3.269-1.022
                        l-1.941,0.688c0,0,16.85,8.523,15.436-13.83C56.817,155.909,54.932,159.646,54.932,159.646z"/>
                    <path fill="#D34808" d="M21.175,165.52l0.05,2.711l1.001,2.634l1.453,2.278l2.964,1.205l4.305-0.015l5.34-3.125l2.391-0.024
                        c0,0-17.273,14.868-20.286-6.562C18.039,162.096,21.175,165.52,21.175,165.52z"/>
                    <path fill="#FF880C" d="M21.25,166.479l0.05,2.709l1.001,2.633l1.453,2.279l2.964,1.207l4.305-0.015l5.34-3.126l2.391-0.025
                        c0,0-17.273,14.867-20.286-6.562C18.113,163.055,21.25,166.479,21.25,166.479z"/>
                    <path fill="none" stroke="#301406" stroke-width="0.9541" d="M26.919,151.93l-2.586,0.305l-2.802,1.189
                        c0,0-15.321,8.039-17.967,19.313c-2.647,11.271,7.625,23.834,15.59,26.285c8.053,2.479,18.02,6.26,35.944-0.153
                        c21.312-2.845,28.966-15.733,22.081-36.16c-8.958-22.991-37.051-13.879-37.051-13.879L26.919,151.93z"/>
                    <path fill="#776751" stroke="#000000" stroke-width="0.9541" d="M34.137,135.178l-5.562-0.767l-4.719,0.845l0.239,3.094
                        l2.89,0.254l2.288,1.736c0,0,4.63,4.188-1.289,9.006c-4.158,0.985-8.484,6.004-8.484,6.004s7.438-3.83,12.047-4.18
                        c4.445-1.303,7.061-1.505,9.737-0.896c3.565-1.213,4.521-1.922,4.521-1.922S39.845,134.734,34.137,135.178z"/>
                    <path fill="#371C22" d="M37.526,139.341c0.183-0.728-3.056-3.304-5.047-2.917c-0.909-0.552-6.073-0.17-6.073-0.17
                        s7.419,2.166,5.954,4.544c-0.634,2.461,1.583,1.222,0.831,4.82c-0.55,0.877-1.14,1.837-1.14,1.837L27.548,151l5.938-1.576
                        c0,0,1.22-0.732,1.585-1.66c1.063-0.967,0.169-2.449,0.169-2.449l-0.221-2.866l4.063,5.106l-0.733-3.293l3.506,2.59
                        c0,0-0.177-2.492-1.053-3.541c-0.666-2.209-2.403-1.281-3.161-2.021C37.261,140.917,37.342,140.068,37.526,139.341z"/>
                    <path fill="#FFFC5A" d="M59.891,170.066c0,0,0.859,16.91-3.019,17.871c-1.021,0.252-2.818-3.584-2.818-3.584l-0.487,4.011
                        l-1.206,2.965l-2.109,1.599l-2.623-0.912l-2.781-2.959l-1.107,4.23l-5.307,1.513l-3.598-1.155l-3.587-5.131l-0.743,4.827
                        c0,0-7.956-1.534-10.141-13.569c-0.098-0.539,2.416,1.668,2.696,1.865c2.039,1.61,3.875,2.664,3.875,2.664l3.458,1.407
                        l3.623,0.438l4.302,6.127l1.149-6.789l3.012-0.232l2.84-0.395l3.846,5.379l1.312-6.735l2.123-1.426l2.707-2.122l2.596-3.551
                        L59.891,170.066z">
                        <animateColor attributeName="fill" attributeType="CSS" values="#FEFB6D;#FF880C;#FEFB6D" begin="2s" dur="3.5s" repeatDur="indefinite" />
                    </path>
                    <path fill="#D34808" d="M58.379,171.818l0.612-1.363c0,0,1,24.722-5.208,16.104c-0.478-0.664,0.699,0.767,0.699,0.767
                        l0.757-0.978c0,0,3.264-3.654,2.253-12.066C57.444,173.872,58.379,171.818,58.379,171.818z"/>
                    <path fill="#FF880C" d="M59.338,171.744l0.612-1.363c0,0,0.999,24.723-5.208,16.104c-0.478-0.664,0.701,0.767,0.701,0.767
                        l0.756-0.978c0,0,3.264-3.652,2.253-12.066C58.403,173.798,59.338,171.744,59.338,171.744z"/>
                    <path fill="#D34808" d="M52.831,185.023l1.107-1.146c0,0-1.154,14.444-8.861,4.516c-0.501-0.646,5.555,5.312,6.806-0.168
                        C52.179,186.924,52.831,185.023,52.831,185.023z"/>
                    <path fill="#FF880C" d="M52.905,185.982l1.107-1.146c0,0-1.154,14.445-8.861,4.516c-0.501-0.646,5.555,5.313,6.806-0.168
                        C52.253,187.882,52.905,185.982,52.905,185.982z"/>
                    <path fill="#D34808" d="M33.917,189.495l-2.398-1.608c0,0,2.44,8.848,12.177,4.824c0.757-0.313-4.851,1.469-8.142-1.125
                        C34.507,190.762,33.917,189.495,33.917,189.495z"/>
                    <path fill="#FF880C" d="M33.992,190.453l-2.398-1.605c0,0,2.44,8.846,12.177,4.821c0.757-0.312-4.851,1.472-8.142-1.124
                        C34.581,191.721,33.992,190.453,33.992,190.453z"/>
                    <path fill="#D34808" d="M21.151,179.008c0,0,1.245,11.407,9.839,14.295c1.147,0.385,0.342,0.293,0.342,0.293l0.475-2.109
                        c0,0-5.348-0.613-8.691-10.772"/>
                    <path fill="#FF880C" d="M20.191,179.082c0,0,1.246,11.407,9.839,14.295c1.148,0.384,0.343,0.292,0.343,0.292l0.474-2.108
                        c0,0-5.347-0.613-8.69-10.772"/>
                </g>
                <g id="PumkinSmall">
                    <path fill="#BE580A" stroke="#301406" stroke-width="0.54" d="M119.383,176.141l1.451,0.256l1.547,0.763
                        c0,0,8.399,5.03,9.535,11.485c1.135,6.453-5.069,13.228-9.648,14.355c-4.631,1.145-10.383,2.961-20.309-1.234
                        c-11.951-2.289-15.864-9.816-11.32-21.141c5.797-12.705,21.38-6.659,21.38-6.659L119.383,176.141z"/>
                    <path fill="#CA610B" d="M119.913,178.416c12.961,10.749,7.813,19.926,7.813,19.926s-0.118,0.188-0.309,0.497
                        c-1.266,2.05-0.623,1.666,0.213,0.565c7.382-9.731-8.086-21.803-8.086-21.803L119.913,178.416z"/>
                    <path fill="#A15209" d="M120.267,177.848c0,0,13.343,11.032,3.417,23.438c-0.582,0.729-1.08,0.943-1.08,0.943
                        s9.137-10.777-2.18-23.691C118.329,176.145,120.267,177.848,120.267,177.848z"/>
                    <path fill="#CA610B" d="M119.081,178.503c0,0,13.198,11.851,3.274,24.253c-0.583,0.727-0.696,0.193-0.696,0.193
                        s8.896-10.842-2.421-23.756C117.141,176.801,119.081,178.503,119.081,178.503z"/>
                    <path fill="#A0540D" d="M118.844,177.391c0,0,10.143,11.577-0.706,26.613c-0.49,0.68-0.509,0.094-0.509,0.094
                        s9.682-14.154,1.466-26.067C117.954,176.376,118.844,177.391,118.844,177.391z"/>
                    <path fill="#CA610B" d="M117.766,177.244c0,0,10.143,11.58-0.707,26.615c-0.489,0.679-0.512,0.094-0.512,0.094
                        s9.685-14.154,1.468-26.07C116.875,176.23,117.766,177.244,117.766,177.244z"/>
                    <path fill="#CA610B" d="M115.874,176.35c0,0,4.297,21.733-8.074,26.131c-1.774,0.629,2.027,0.104,2.027,0.104
                        s10.178-5.353,6.594-25.813c-2.084-11.896-0.401-0.677-0.401-0.677"/>
                    <path fill="#A25D0E" d="M116.954,176.494c0,0,4.295,21.734-8.076,26.13c-1.774,0.631,2.029,0.106,2.029,0.106
                        s10.178-5.354,6.594-25.814c-2.086-11.896-0.403-0.676-0.403-0.676"/>
                    <path fill="#A15319" d="M112.483,175.378c0,0-4.751,5.313-6.016,8.289c-1.264,2.976-3.276,9.925-5.588,15.438
                        c-0.771,1.841,3.646-6.098,4.449-12.53c0.799-6.394,6.43-10.892,6.43-10.892l0.77-0.49"/>
                    <path fill="#CA610B" d="M113.561,175.521c0,0-4.75,5.313-6.014,8.291c-1.264,2.975-3.277,9.924-5.588,15.438
                        c-0.771,1.841,3.646-6.098,4.449-12.529c0.797-6.396,6.43-10.894,6.43-10.894l0.768-0.488"/>
                    <path fill="#CA610B" d="M111.805,175.072c0,0-14.848,9.714-14.276,19.048c0.572,9.334-0.784,2.562-0.784,2.562l-0.186-2.58
                        c0,0,0.74-10.39,14.255-18.619c13.513-8.229,1.031-0.502,1.031-0.502"/>
                    <path fill="#AC5316" d="M110.726,174.927c0,0-14.849,9.714-14.276,19.048c0.571,9.334-0.785,2.563-0.785,2.563l-0.184-2.579
                        c0,0,0.739-10.392,14.253-18.62c13.515-8.229,1.032-0.502,1.032-0.502"/>
                    <path fill="#CA610B" d="M110.198,175.35c0,0-20.05,2.023-17.85,16.731c0.247,1.655,0.802,0.702,0.749-0.024
                        c-0.945-12.75,17.879-17.242,17.879-17.242L110.198,175.35z"/>
                    <path fill="#8B4B07" stroke="#8A520A" stroke-width="0.54" d="M129.633,190.98c0.387,7.129-10.459,14.463-6.258,11.078
                        c0.69-0.56-0.976,1.161,1.75-0.854c5.09-3.772,12.75-12.247-1.806-23.537C123.322,177.668,129.185,182.68,129.633,190.98z"/>
                    <path fill="#854509" stroke="#8A520A" stroke-width="0.27" d="M92.183,183.828c-3.935,7.875,2.248,17.195-0.388,12.482
                        c-0.305-0.55-4.767-5.471-1.188-14.467c1.646-4.138,6.135-11.16,17.68-8.382C108.29,173.464,98.243,171.704,92.183,183.828z"/>
                    <path fill="#0F0" d="M110.534,186.652c0,0-5.369,0.07-6.91-0.594s-1.369-7.718-1.369-7.718S108.186,186.3,110.534,186.652z">
                        <animateColor attributeName="fill" attributeType="CSS" values="#FEFB6D;#FF880C;#FEFB6D" dur="2.5s" repeatDur="indefinite" />
                    </path>
                    <path fill="#F9FA5E" d="M120.297,190.184c0.998-0.771,4.481-4.805,3.199-6.826c0,0-5.047,4.423-10.896,3.799
                        c-0.18-0.021-0.454-0.166-0.479-0.042C111.886,188.428,120.131,190.313,120.297,190.184z">
                        <animateColor attributeName="fill" attributeType="CSS" values="#FEFB6D;#FF880C;#FEFB6D" dur="2.5s" repeatDur="indefinite" />
                    </path>
                    <path fill="#D34808" d="M103.379,179.066l-0.123,1.936l0.224,2.391l0.71,1.459l1.154,0.881l2.307,0.401l1.881-0.472
                        l1.074,0.449c0,0-9.794,4.277-8.279-8.31C102.434,176.896,103.379,179.066,103.379,179.066z"/>
                    <path fill="#FF880C" d="M103.308,179.605l-0.124,1.936l0.225,2.391l0.709,1.459l1.153,0.881l2.308,0.401l1.881-0.473
                        l1.074,0.452c0,0-9.793,4.274-8.279-8.312C102.362,177.436,103.308,179.605,103.308,179.605z"/>
                    <path fill="#D34808" d="M122.196,184.004l-0.115,1.53l-0.648,1.455l-0.896,1.241l-1.711,0.588l-2.435-0.146l-2.917-1.936
                        l-1.35-0.092c0,0,9.285,8.953,11.672-3.062C124.079,182.17,122.196,184.004,122.196,184.004z"/>
                    <path fill="#FF880C" d="M122.124,184.544l-0.115,1.529l-0.648,1.454l-0.896,1.242l-1.711,0.588l-2.435-0.146l-2.917-1.938
                        l-1.35-0.092c0,0,9.285,8.955,11.672-3.061C124.004,182.71,122.124,184.544,122.124,184.544z"/>
                    <path fill="none" stroke="#301406" stroke-width="0.54" d="M119.383,176.141l1.451,0.256l1.547,0.763
                        c0,0,8.399,5.03,9.535,11.485c1.135,6.453-5.069,13.228-9.648,14.355c-4.631,1.145-10.383,2.961-20.309-1.234
                        c-11.951-2.289-15.864-9.816-11.32-21.141c5.797-12.705,21.38-6.659,21.38-6.659L119.383,176.141z"/>
                    <path fill="#776751" stroke="#000000" stroke-width="0.54" d="M115.84,166.443l3.168-0.254l2.639,0.625l-0.232,1.742
                        l-1.641,0.051l-1.352,0.908c0,0-2.75,2.219,0.443,5.131c2.315,0.688,4.602,3.664,4.602,3.664s-4.08-2.401-6.676-2.746
                        c-2.472-0.879-3.94-1.076-5.475-0.818c-1.977-0.8-2.492-1.23-2.492-1.23S112.629,166.012,115.84,166.443z"/>
                    <path fill="#371C22" d="M113.793,168.688c-0.082-0.416,1.83-1.769,2.943-1.484c0.53-0.282,3.438,0.099,3.438,0.099
                        s-4.262,0.987-3.51,2.378c0.278,1.41-0.936,0.641-0.623,2.696c0.283,0.515,0.586,1.074,0.586,1.074l2.432,2.146l-3.305-1.08
                        c0,0-0.666-0.453-0.844-0.988c-0.57-0.58-0.019-1.392-0.019-1.392l0.216-1.612l-2.459,2.759l0.52-1.839l-2.063,1.353
                        c0,0,0.182-1.401,0.708-1.967c0.446-1.229,1.397-0.646,1.853-1.043C113.892,169.588,113.874,169.104,113.793,168.688z"/>
                    <path fill="#FFFC5A" d="M100.172,185.337c0,0-1.026,9.528,1.136,10.196c0.567,0.172,1.705-1.938,1.705-1.938l0.147,2.281
                        l0.586,1.716l1.142,0.971l1.512-0.434l1.666-1.583l0.49,2.427l2.95,1.024l2.07-0.539l2.189-2.784l0.266,2.752
                        c0,0,4.547-0.611,6.164-7.344c0.072-0.301-1.418,0.864-1.583,0.966c-1.202,0.849-2.272,1.386-2.272,1.386l-2,0.685
                        l-2.063,0.131l-2.627,3.325l-0.432-3.873l-1.695-0.229l-1.592-0.313l-2.346,2.918l-0.526-3.851l-1.151-0.873l-1.463-1.285
                        l-1.354-2.09L100.172,185.337z">
                        <animateColor attributeName="fill" attributeType="CSS" values="#FEFB6D;#FF880C;#FEFB6D" dur="2.5s" repeatDur="indefinite" />
                    </path>
                    <path fill="#D34808" d="M100.972,186.375l-0.304-0.791c0,0-1.354,13.938,2.429,9.268c0.291-0.358-0.42,0.409-0.42,0.409
                        l-0.396-0.575c0,0-1.73-2.17-0.89-6.892C101.432,187.564,100.972,186.375,100.972,186.375z"/>
                    <path fill="#FF880C" d="M100.431,186.303l-0.302-0.791c0,0-1.354,13.938,2.427,9.269c0.293-0.359-0.419,0.409-0.419,0.409
                        l-0.396-0.574c0,0-1.729-2.172-0.888-6.895C100.893,187.492,100.431,186.303,100.431,186.303z"/>
                    <path fill="#D34808" d="M103.684,194.016l-0.589-0.685c0,0,0.19,8.199,4.864,2.834c0.303-0.349-3.312,2.825-3.842-0.312
                        C103.993,195.107,103.684,194.016,103.684,194.016z"/>
                    <path fill="#FF880C" d="M103.612,194.555l-0.589-0.684c0,0,0.19,8.199,4.863,2.834c0.304-0.35-3.31,2.822-3.841-0.313
                        C103.918,195.646,103.612,194.555,103.612,194.555z"/>
                    <path fill="#D34808" d="M114.229,197.146l1.406-0.834c0,0-1.661,4.922-7.035,2.338c-0.417-0.202,2.693,0.983,4.638-0.375
                        C113.856,197.842,114.229,197.146,114.229,197.146z"/>
                    <path fill="#FF880C" d="M114.157,197.686l1.405-0.834c0,0-1.661,4.922-7.034,2.338c-0.418-0.199,2.694,0.985,4.637-0.375
                        C113.784,198.382,114.157,197.686,114.157,197.686z"/>
                    <path fill="#D34808" d="M121.779,191.627c0,0-1.067,6.406-6.018,7.764c-0.659,0.183-0.202,0.154-0.202,0.154l-0.2-1.206
                        c0,0,3.04-0.177,5.255-5.812"/>
                    <path fill="#FF880C" d="M122.318,191.699c0,0-1.067,6.406-6.017,7.765c-0.66,0.181-0.202,0.153-0.202,0.153l-0.2-1.207
                        c0,0,3.039-0.178,5.254-5.811"/>
                </g>
                <defs>
                    <path id="RainDrop" fill="#555EE3" d="M80.18,46.869c-0.279,1.393-0.212,2.582,0.149,2.654c0.361,0.072,0.879-1,1.158-2.392
                        c0.279-1.393,0.212-2.582-0.149-2.653C80.977,44.405,80.458,45.477,80.18,46.869z"/>

                    <g id="rainLine">
                    <use xlink:href="#RainDrop">
                        <animateTransform attributeName="transform" attributeType="XML" type="translate"
                         values="0,-100; 0,150" begin="0s" dur="1.5s" fill="freeze" repeatCount="indefinite"/>            
                    </use>
                    <use xlink:href="#RainDrop">
                        <animateTransform attributeName="transform" attributeType="XML" type="translate"
                         values="-20,-80; -20,100" begin="0s" dur="1.5s" fill="freeze" repeatCount="indefinite"/>            
                    </use>
                    <use xlink:href="#RainDrop">
                        <animateTransform attributeName="transform" attributeType="XML" type="translate"
                         values="-50,-50; -50,80" begin="0s" dur="1.5s" fill="freeze" repeatCount="indefinite"/>            
                    </use>
                    <use xlink:href="#RainDrop">
                        <animateTransform attributeName="transform" attributeType="XML" type="translate"
                         values="0,-100; 0,150" begin="0.75s" dur="1.5s" fill="freeze" repeatCount="indefinite"/>            
                    </use>
                    <use xlink:href="#RainDrop">
                        <animateTransform attributeName="transform" attributeType="XML" type="translate"
                         values="-20,-80; -20,100" begin="0.75s" dur="1.5s" fill="freeze" repeatCount="indefinite"/>            
                    </use>
                    <use xlink:href="#RainDrop">
                        <animateTransform attributeName="transform" attributeType="XML" type="translate"
                         values="-50,-50; -50,160" begin="0.75s" dur="1.5s" fill="freeze" repeatCount="indefinite"/>            
                    </use>
                    <use xlink:href="#RainDrop">
                        <animateTransform attributeName="transform" attributeType="XML" type="translate"
                         values="-90,-50; -90,80" begin="0.75s" dur="1.5s" fill="freeze" repeatCount="indefinite"/>            
                    </use>

                    <use xlink:href="#RainDrop">
                        <animateTransform attributeName="transform" attributeType="XML" type="translate"
                         values="20,-90; 30,100" begin="0s" dur="1.5s" fill="freeze" repeatCount="indefinite"/>            
                    </use>
                    <use xlink:href="#RainDrop">
                        <animateTransform attributeName="transform" attributeType="XML" type="translate"
                         values="40,-80; 40,90" begin="0s" dur="1.5s" fill="freeze" repeatCount="indefinite"/>            
                    </use>
                    <use xlink:href="#RainDrop">
                        <animateTransform attributeName="transform" attributeType="XML" type="translate"
                         values="60,-50; 60,160" begin="0s" dur="1.5s" fill="freeze" repeatCount="indefinite"/>            
                    </use>
                    <use xlink:href="#RainDrop">
                        <animateTransform attributeName="transform" attributeType="XML" type="translate"
                         values="90,-100; 90,100" begin="0.75s" dur="1.5s" fill="freeze" repeatCount="indefinite"/>            
                    </use>
                    <use xlink:href="#RainDrop">
                        <animateTransform attributeName="transform" attributeType="XML" type="translate"
                         values="20,-80; 20,100" begin="0.75s" dur="1.5s" fill="freeze" repeatCount="indefinite"/>            
                    </use>
                    <use xlink:href="#RainDrop">
                        <animateTransform attributeName="transform" attributeType="XML" type="translate"
                         values="60,-50; 60,80" begin="0.75s" dur="1.5s" fill="freeze" repeatCount="indefinite"/>            
                    </use>
                    </g>
                </defs>

                <g id="RainLayer">
                    <use xlink:href="#rainLine" />
                    <use xlink:href="#rainLine" transform="translate(10, -10) scale(0.8)" />
                </g>
            </g>
        </g>


        <g id="halloweenTextAnim" transform="translate(76, 116) rotate(20, 40, 10) scale(0.9)">
         <g transform="translate(10.265999794006348, 9.527999818325043)">
             <g transform="translate(-10.265999794006348, -9.527999818325043)">
                 <use xlink:href="#g1" x="0.5" y="0.5" fill="#EFFA99"/>
                 <path id="g1" d="M10.266,8.652c0.464-0.296,0.696-0.692,0.696-1.188V1.572c0-0.176-0.184-0.396-0.552-0.66l0.192-0.252c0.76,0.096,1.428-0.124,2.004-0.66h4.248v0.528h-1.98c-1.44,0-2.16,0.348-2.16,1.044v0.636c0.936-0.144,1.708-0.472,2.316-0.984c1.248,0.168,2.08,0.893,2.496,2.172c0.416,1.272,0.236,2.46-0.54,3.564c-0.792,1.104-1.824,1.96-3.096,2.568l-0.312-0.3c0.808-0.496,1.456-1.147,1.944-1.956c0.488-0.8,0.644-1.676,0.468-2.628c-0.184-0.952-0.584-1.548-1.2-1.788C14.238,2.632,13.546,2.78,12.714,3.3v3.756c-0.008,0.816,0.128,1.348,0.408,1.596L13.11,9.048h-2.844V8.652z" />
             </g>
            <!--
             <animateTransform id="textAnim_1" attributeName="transform" attributeType="XML" type="scale"
                               values="1;5;1" begin="0.1s; textAnim_1.end + 6.1s" dur="1s" additive="sum" accumulate="sum" />
             <animateColor attributeName="fill" attributeType="CSS" values="black;#D34808;#EFFA99;#D34808;black;" begin="0s; textAnim_1.end + 6s" dur="1.5s" />
            -->
         </g>
         <g transform="translate(18.769001007080078, 9.527999818325043)">
             <g transform="translate(-18.769001007080078, -9.527999818325043)">
                 <use xlink:href="#g2" x="0.5" y="0.5" fill="#EFFA99" />
                 <path id="g2" d="M21.917,4.917c-0.056-0.368-0.256-0.624-0.6-0.768c-0.536,0.344-1.204,0.588-2.004,0.731l-0.3-0.443c1-0.4,1.764-0.952,2.292-1.656c0.36,0.296,0.722,0.566,1.086,0.81c0.364,0.244,0.738,0.458,1.122,0.642v3.144c0.008,0.528,0.256,0.792,0.744,0.792v0.288l-1.104,0.684l-1.224-0.912l-1.68,1.056c-0.808-0.168-1.264-0.612-1.368-1.332c-0.112-0.728,0.148-1.324,0.78-1.788l2.256-0.864V4.917zM21.186,6.141c-0.528,0.376-0.788,0.78-0.78,1.212c0.016,0.416,0.268,0.652,0.756,0.708l0.756-0.313V5.817L21.186,6.141z" />
             </g>
            <!--
             <animateTransform id="textAnim_2" attributeName="transform" attributeType="XML" type="scale"
                               values="1;5;1" begin="textAnim_1.begin + 0.2s" dur="1s" additive="sum" accumulate="sum" />
             <animateColor attributeName="fill" attributeType="CSS" values="black;#D34808;#EFFA99;#D34808;black;" begin="textAnim_1.begin + 0.1s" dur="1.5s" />
            -->
         </g>
         <g transform="translate(24.472997665405273, 9.527999818325043)">
             <g transform="translate(-24.472997665405273, -9.527999818325043)">
                 <use xlink:href="#g3" x="0.5" y="0.5" fill="#EFFA99" />
                 <path id="g3" d="M26.669,3.529c0.528-0.128,1.016-0.372,1.464-0.732c0.32,0.12,0.616,0.278,0.888,0.474s0.504,0.424,0.696,0.684s0.338,0.552,0.438,0.876s0.142,0.674,0.126,1.05c-0.024,0.456-0.092,0.838-0.204,1.146c-0.112,0.308-0.27,0.58-0.474,0.815c-0.204,0.236-0.45,0.46-0.738,0.672s-0.62,0.45-0.996,0.714c-0.216-0.08-0.442-0.216-0.678-0.408c-0.236-0.192-0.41-0.448-0.522-0.769v3.252h-1.596v-6.3c0-0.472-0.2-0.728-0.6-0.768V4.021l2.196-1.152V3.529zM28.697,7.873c0.144-0.48,0.21-0.932,0.198-1.356c-0.012-0.424-0.094-0.815-0.246-1.176c-0.144-0.352-0.324-0.628-0.54-0.828c-0.216-0.2-0.436-0.384-0.66-0.552c-0.248,0.08-0.508,0.128-0.78,0.144v2.076c0.008,0.225,0.058,0.45,0.15,0.678s0.222,0.428,0.39,0.6s0.376,0.3,0.624,0.384S28.369,7.937,28.697,7.873z" />
             </g>
            <!--
             <animateTransform id="textAnim_3" attributeName="transform" attributeType="XML" type="scale"
                               values="1;5;1" begin="textAnim_2.begin + 0.2s" dur="1s" additive="sum" accumulate="sum" />
             <animateColor attributeName="fill" attributeType="CSS" values="black;#D34808;#EFFA99;#D34808;black;" begin="textAnim_2.begin + 0.1s" dur="1.5s" />
            -->
         </g>
         <g transform="translate(30.65300178527832, 9.527999818325043)">
             <g transform="translate(-30.65300178527832, -9.527999818325043)">
                 <use xlink:href="#g4" x="0.5" y="0.5" fill="#EFFA99" />
                 <path id="g4" d="M32.849,3.529c0.528-0.128,1.016-0.372,1.464-0.732c0.32,0.12,0.616,0.278,0.888,0.474s0.504,0.424,0.696,0.684s0.338,0.552,0.438,0.876s0.142,0.674,0.126,1.05c-0.024,0.456-0.092,0.838-0.204,1.146c-0.112,0.308-0.27,0.58-0.474,0.815c-0.204,0.236-0.45,0.46-0.738,0.672s-0.62,0.45-0.996,0.714c-0.216-0.08-0.442-0.216-0.678-0.408c-0.236-0.192-0.41-0.448-0.522-0.769v3.252h-1.596v-6.3c0-0.472-0.2-0.728-0.6-0.768V4.021l2.196-1.152V3.529zM34.877,7.873c0.144-0.48,0.21-0.932,0.198-1.356c-0.012-0.424-0.094-0.815-0.246-1.176c-0.144-0.352-0.324-0.628-0.54-0.828c-0.216-0.2-0.436-0.384-0.66-0.552c-0.248,0.08-0.508,0.128-0.78,0.144v2.076c0.008,0.225,0.058,0.45,0.15,0.678s0.222,0.428,0.39,0.6s0.376,0.3,0.624,0.384S34.549,7.937,34.877,7.873z" />
             </g>
            <!--
             <animateTransform id="textAnim_4" attributeName="transform" attributeType="XML" type="scale"
                               values="1;5;1" begin="textAnim_3.begin + 0.2s" dur="1s" additive="sum" accumulate="sum" />
             <animateColor attributeName="fill" attributeType="CSS" values="black;#D34808;#EFFA99;#D34808;black;" begin="textAnim_3.begin + 0.1s" dur="1.5s" />
            -->
         </g>
         <g transform="translate(36.4739990234375, 9.527999818325043)">
             <g transform="translate(-36.4739990234375, -9.527999818325043)">
                 <use xlink:href="#g5" x="0.5" y="0.5" fill="#EFFA99" />
                 <path id="g5" d="M39.114,8.928c-1.112-1.16-1.668-2.292-1.668-3.396c0-1.184-0.324-1.928-0.972-2.232V2.844h1.704c0.504,0.439,0.768,1.252,0.792,2.436c0.032,1.184,0.456,2.076,1.272,2.676c0.56-0.527,0.884-1.128,0.972-1.8c0.08-0.672-0.064-1.248-0.432-1.728c-0.36-0.488-0.876-0.624-1.548-0.408l-0.096-0.264c0.232-0.136,0.434-0.286,0.606-0.45s0.31-0.346,0.414-0.546c0.632-0.048,1.16,0.12,1.584,0.504c0.424,0.376,0.612,0.96,0.564,1.752S42.03,6.52,41.622,7.151c-0.2,0.296-0.426,0.58-0.678,0.852s-0.53,0.532-0.834,0.78c-0.6,0.48-1.024,0.916-1.272,1.308c-0.256,0.4-0.376,0.808-0.36,1.224h-1.464c0.168-0.576,0.42-1.07,0.756-1.482C38.105,9.421,38.554,9.119,39.114,8.928z" />
             </g>
            <!--
             <animateTransform id="textAnim_5" attributeName="transform" attributeType="XML" type="scale"
                               values="1;5;1" begin="textAnim_4.begin + 0.2s" dur="1s" additive="sum" accumulate="sum" />
             <animateColor attributeName="fill" attributeType="CSS" values="black;#D34808;#EFFA99;#D34808;black;" begin="textAnim_4.begin + 0.1s" dur="1.5s" />
            -->
         </g>
         <g transform="translate(0, 24.027999877929688)">
             <g transform="translate(-0, -24.027999877929688)">
                 <use xlink:href="#g6" x="0.5" y="0.5" fill="#EFFA99" />
                 <path id="g6" d="M0,23.152c0.464-0.296,0.696-0.692,0.696-1.188v-5.892c0-0.176-0.185-0.396-0.552-0.66l0.192-0.252c0.76,0.096,1.428-0.124,2.004-0.66h4.248v0.528H4.608c-1.44,0-2.16,0.348-2.16,1.044v0.636c0.936-0.144,1.708-0.472,2.316-0.984c1.248,0.168,2.08,0.893,2.496,2.172c0.416,1.272,0.236,2.46-0.54,3.564c-0.792,1.104-1.824,1.96-3.096,2.568l-0.312-0.3c0.808-0.496,1.456-1.147,1.944-1.956c0.488-0.8,0.644-1.676,0.468-2.628c-0.184-0.952-0.584-1.548-1.2-1.788C3.972,17.132,3.28,17.28,2.448,17.8v3.756c-0.008,0.816,0.128,1.348,0.408,1.596l-0.013,0.396H0V23.152z" />
             </g>
            <!--
             <animateTransform id="textAnim_6" attributeName="transform" attributeType="XML" type="scale"
                               values="1;5;1" begin="textAnim_5.begin + 0.2s" dur="1s" additive="sum" accumulate="sum" />
             <animateColor attributeName="fill" attributeType="CSS" values="black;#D34808;#EFFA99;#D34808;black;" begin="textAnim_5.begin + 0.1s" dur="1.5s" />
            -->
         </g>
         <g transform="translate(8.502999305725098, 24.027999877929688)">
             <g transform="translate(-8.502999305725098, -24.027999877929688)">
                 <use xlink:href="#g7" x="0.5" y="0.5" fill="#EFFA99" />
                 <path id="g7" d="M11.651,19.417c-0.056-0.368-0.256-0.624-0.6-0.768c-0.536,0.344-1.205,0.588-2.004,0.731l-0.3-0.443c1-0.4,1.764-0.952,2.292-1.656c0.36,0.296,0.722,0.566,1.086,0.81c0.364,0.244,0.738,0.458,1.122,0.642v3.144c0.008,0.528,0.256,0.792,0.744,0.792v0.288l-1.104,0.684l-1.224-0.912l-1.68,1.056c-0.808-0.168-1.264-0.612-1.368-1.332c-0.112-0.728,0.148-1.324,0.78-1.788l2.256-0.864V19.417zM10.919,20.641c-0.528,0.376-0.788,0.78-0.78,1.212c0.016,0.416,0.268,0.652,0.756,0.708l0.756-0.313v-1.932L10.919,20.641z" />
             </g>
            <!--
             <animateTransform id="textAnim_7" attributeName="transform" attributeType="XML" type="scale"
                               values="1;5;1" begin="textAnim_6.begin + 0.2s" dur="1s" additive="sum" accumulate="sum" />
             <animateColor attributeName="fill" attributeType="CSS" values="black;#D34808;#EFFA99;#D34808;black;" begin="textAnim_6.begin + 0.1s" dur="1.5s" />
            -->
         </g>
         <g transform="translate(14.316999435424805, 24.027999877929688)">
             <g transform="translate(-14.316999435424805, -24.027999877929688)">
                 <use xlink:href="#g8" x="0.5" y="0.5" fill="#EFFA99" />
                 <path id="g8" d="M16.153,23.643l-1.236-0.924v-6.192c0-0.472-0.2-0.728-0.6-0.768v-0.216l2.196-1.152v7.488c0.008,0.528,0.256,0.792,0.744,0.792v0.288L16.153,23.643z" />
             </g>
            <!--
             <animateTransform id="textAnim_8" attributeName="transform" attributeType="XML" type="scale"
                               values="1;5;1" begin="textAnim_7.begin + 0.2s" dur="1s" additive="sum" accumulate="sum" />
             <animateColor attributeName="fill" attributeType="CSS" values="black;#D34808;#EFFA99;#D34808;black;" begin="textAnim_7.begin + 0.1s" dur="1.5s" />
            -->
         </g>
         <g transform="translate(17.76099967956543, 24.027999877929688)">
             <g transform="translate(-17.76099967956543, -24.027999877929688)">
                 <use xlink:href="#g9" x="0.5" y="0.5" fill="#EFFA99" />
                 <path id="g9" d="M19.597,23.643l-1.236-0.924v-6.192c0-0.472-0.2-0.728-0.6-0.768v-0.216l2.196-1.152v7.488c0.008,0.528,0.256,0.792,0.744,0.792v0.288L19.597,23.643z" />
             </g>
            <!--
             <animateTransform id="textAnim_9" attributeName="transform" attributeType="XML" type="scale"
                               values="1;5;1" begin="textAnim_8.begin + 0.2s" dur="1s" additive="sum" accumulate="sum" />
             <animateColor attributeName="fill" attributeType="CSS" values="black;#D34808;#EFFA99;#D34808;black;" begin="textAnim_8.begin + 0.1s" dur="1.5s" />
            -->
         </g>
         <g transform="translate(20.93899917602539, 24.027999877929688)">
             <g transform="translate(-20.93899917602539, -24.027999877929688)">
                 <use xlink:href="#g10" x="0.5" y="0.5" fill="#EFFA99" />
                 <path id="g10" d="M23.875,17.25c0.936,0.536,1.588,1.104,1.956,1.704c0.368,0.584,0.552,1.228,0.552,1.932c0,0.688-0.276,1.288-0.828,1.8c-0.528,0.528-1.176,0.86-1.944,0.996c-0.752-0.279-1.384-0.684-1.896-1.212c-0.528-0.544-0.776-1.168-0.744-1.872c0.032-0.728,0.292-1.328,0.78-1.8C22.231,18.334,22.939,17.818,23.875,17.25zM22.195,18.99c-0.136,0.344-0.182,0.678-0.138,1.002c0.044,0.324,0.146,0.626,0.306,0.906s0.366,0.53,0.618,0.75s0.516,0.398,0.792,0.534c0.276,0.137,0.55,0.223,0.822,0.258c0.272,0.036,0.512,0.01,0.72-0.078c0.128-0.28,0.182-0.572,0.162-0.876s-0.096-0.596-0.228-0.876c-0.132-0.28-0.308-0.54-0.528-0.78s-0.466-0.438-0.738-0.594c-0.272-0.156-0.562-0.26-0.87-0.313C22.805,18.872,22.499,18.894,22.195,18.99z" />
             </g>
            <!--
             <animateTransform id="textAnim_10" attributeName="transform" attributeType="XML" type="scale"
                               values="1;5;1" begin="textAnim_9.begin + 0.2s" dur="1s" additive="sum" accumulate="sum" />
             <animateColor attributeName="fill" attributeType="CSS" values="black;#D34808;#EFFA99;#D34808;black;" begin="textAnim_9.begin + 0.1s" dur="1.5s" />
            -->
         </g>
         <g transform="translate(26.941999435424805, 24.027999877929688)">
             <g transform="translate(-26.941999435424805, -24.027999877929688)">
                 <use xlink:href="#g11" x="0.5" y="0.5" fill="#EFFA99" />
                 <path id="g11" d="M33.146,23.739c-0.64-0.632-1.096-1.184-1.368-1.656c-0.208,0.256-0.464,0.522-0.768,0.798s-0.652,0.562-1.044,0.858h-0.108c-1.296-1.28-1.944-2.516-1.944-3.708c0-1.184-0.324-1.928-0.972-2.232v-0.456h1.704c0.504,0.439,0.768,1.252,0.792,2.436c0.032,1.184,0.456,2.076,1.272,2.676c0.56-0.527,0.884-1.128,0.972-1.8c0.08-0.672-0.064-1.248-0.432-1.728c-0.36-0.488-0.876-0.624-1.548-0.408l-0.096-0.264c0.232-0.136,0.434-0.286,0.606-0.45s0.31-0.346,0.414-0.546c0.632-0.048,1.196,0.188,1.692,0.708c0.496,0.544,0.62,1.268,0.372,2.172c0.232,1.08,0.668,1.852,1.308,2.315c0.56-0.527,0.884-1.128,0.972-1.8c0.08-0.672-0.064-1.248-0.432-1.728c-0.36-0.488-0.876-0.624-1.548-0.408l-0.096-0.264c0.232-0.136,0.434-0.286,0.606-0.45c0.172-0.164,0.31-0.346,0.414-0.546c0.632-0.048,1.16,0.12,1.584,0.504c0.424,0.376,0.612,0.96,0.564,1.752c-0.048,0.792-0.276,1.504-0.684,2.136c-0.408,0.624-1.116,1.32-2.124,2.088H33.146z" />
             </g>
            <!--
             <animateTransform id="textAnim_11" attributeName="transform" attributeType="XML" type="scale"
                               values="1;5;1" begin="textAnim_10.begin + 0.2s" dur="1s" additive="sum" accumulate="sum" />
             <animateColor attributeName="fill" attributeType="CSS" values="black;#D34808;#EFFA99;#D34808;black;" begin="textAnim_10.begin + 0.1s" dur="1.5s" />
            -->
         </g>
         <g transform="translate(36.86299514770508, 24.027999877929688)">
             <g transform="translate(-36.86299514770508, -24.027999877929688)">
                 <use xlink:href="#g12" x="0.5" y="0.5" fill="#EFFA99" />
                 <path id="g12" d="M38.339,21.534c0.424,0.456,0.888,0.704,1.392,0.744c0.456,0.032,0.884-0.056,1.284-0.264l0.156,0.084c-0.552,0.929-1.236,1.456-2.052,1.584c-0.616-0.279-1.148-0.684-1.596-1.212c-0.448-0.544-0.66-1.168-0.636-1.872c0.032-0.712,0.252-1.308,0.66-1.788c0.208-0.239,0.462-0.489,0.762-0.75c0.3-0.26,0.642-0.53,1.026-0.81c0.656,0.4,1.208,0.944,1.656,1.632L38.339,21.534zM38.183,18.678c-0.384,0.968-0.424,1.788-0.12,2.46l1.404-1.404C39.299,19.094,38.871,18.742,38.183,18.678z" />
             </g>
            <!--
             <animateTransform id="textAnim_12" attributeName="transform" attributeType="XML" type="scale"
                               values="1;5;1" begin="textAnim_11.begin + 0.2s" dur="1s" additive="sum" accumulate="sum" />
             <animateColor attributeName="fill" attributeType="CSS" values="black;#D34808;#EFFA99;#D34808;black;" begin="textAnim_11.begin + 0.1s" dur="1.5s" />
            -->
         </g>
         <g transform="translate(41.74699783325195, 24.027999877929688)">
             <g transform="translate(-41.74699783325195, -24.027999877929688)">
                 <use xlink:href="#g13" x="0.5" y="0.5" fill="#EFFA99" />
                 <path id="g13" d="M43.223,21.534c0.424,0.456,0.888,0.704,1.392,0.744c0.456,0.032,0.884-0.056,1.284-0.264l0.156,0.084c-0.552,0.929-1.236,1.456-2.052,1.584c-0.616-0.279-1.148-0.684-1.596-1.212c-0.448-0.544-0.66-1.168-0.636-1.872c0.032-0.712,0.252-1.308,0.66-1.788c0.208-0.239,0.462-0.489,0.762-0.75c0.3-0.26,0.642-0.53,1.026-0.81c0.656,0.4,1.208,0.944,1.656,1.632L43.223,21.534zM43.067,18.678c-0.384,0.968-0.424,1.788-0.12,2.46l1.404-1.404C44.183,19.094,43.755,18.742,43.067,18.678z" />
             </g>
            <!--
             <animateTransform id="textAnim_13" attributeName="transform" attributeType="XML" type="scale"
                               values="1;5;1" begin="textAnim_12.begin + 0.2s" dur="1s" additive="sum" accumulate="sum" />
             <animateColor attributeName="fill" attributeType="CSS" values="black;#D34808;#EFFA99;#D34808;black;" begin="textAnim_12.begin + 0.1s" dur="1.5s" />
            -->
         </g>
         <g transform="translate(46.400001525878906, 24.027999877929688)">
             <g transform="translate(-46.400001525878906, -24.027999877929688)">
                 <use xlink:href="#g14" x="0.5" y="0.5" fill="#EFFA99" />
                 <path id="g14" d="M47,19.464c0-0.472-0.2-0.728-0.6-0.768V18.48l1.344-1.152c0.48,0.136,0.764,0.404,0.853,0.804c0.815-0.168,1.496-0.436,2.04-0.804c0.984,0.24,1.552,0.844,1.704,1.812c0.152,0.976,0.032,2.44-0.36,4.392h-2.064c1.136-2.664,1.324-4.152,0.564-4.464c-0.752-0.312-1.38-0.312-1.884,0v4.464H47V19.464z" />
             </g>
            <!--
             <animateTransform id="textAnim_14" attributeName="transform" attributeType="XML" type="scale"
                               values="1;5;1" begin="textAnim_13.begin + 0.2s" dur="1s" additive="sum" accumulate="sum" />
             <animateColor attributeName="fill" attributeType="CSS" values="black;#D34808;#EFFA99;#D34808;black;" begin="textAnim_13.begin + 0.1s" dur="1.5s" />
            -->
         </g>
        </g>
    </g>

    <path d="M -200 -200 l 600 0 l 0 600 l -600 0 Z M 2 2 L 175.379 2 L 175.379 207 L 2 207 Z" fill-rule="evenodd" fill="black" />
</svg>
