<?xml version="1.0" encoding="utf-8"?>
<!-- Generator: Adobe Illustrator 11.0, SVG Export Plug-In . SVG Version: 6.0.0 Build 78)  -->
<!DOCTYPE svg PUBLIC "-//W3C//DTD SVG 1.0//EN"    "http://www.w3.org/TR/2001/REC-SVG-20010904/DTD/svg10.dtd" [
	<!ENTITY ns_svg "http://www.w3.org/2000/svg">
	<!ENTITY ns_xlink "http://www.w3.org/1999/xlink">
	<!ENTITY blueRegion "#CADCF0">
	<!ENTITY blueLine "#77A9DE">
	<!ENTITY blueTitle "#C0D4EC">
	<!ENTITY greenRegion "#D2EBD8">
	<!ENTITY greenLine "#86AA90">
	<!ENTITY greenTitle "#ACC9B3">
	<!ENTITY activityRegion "#E7F2F8">
        <!ENTITY eventRegion "lightyellow">
        <!ENTITY gatewayRegion "lightgreen">
        <!ENTITY laneRegion "whitesmoke"> 
        <!ENTITY poolNameRegion "#E7F2F8">
        <!ENTITY wireStrokeColor "#E68B2C">
]>
<svg  xmlns="&ns_svg;" xmlns:xlink="&ns_xlink;" xmlns:a="http://ns.adobe.com/AdobeSVGViewerExtensions/3.0/"
	 width="1200" height="1200"
	 xml:space="preserve" preserveAspectRatio="xMidYMin meet">
		<defs>
                    <pattern  x="101" y="1239.984" width="20" height="19.75" patternUnits="userSpaceOnUse" id="dot" viewBox="0 -19.75 20 19.75">
                        <g>
                            <polygon fill="none" points="0,0 20,0 20,-19.75 0,-19.75 		"/>
                            <polygon fill="#FCFAF5" points="20,0 0,0 0,-19.75 20,-19.75 		"/>
                            <polygon fill="#A29FA7" points="10.5,-9.75 9.5,-9.75 9.5,-10.75 10.5,-10.75 		"/>
                        </g>
                    </pattern>
                    <pattern id="Grid8x8Pattern" x="0" y="0" width="8" height="8" patternUnits="userSpaceOnUse">
                        <rect fill="#FCFAF5" stroke="none" width="8" height="8"/>
                        <circle fill="#A29FA7" cx="0.5" cy="0.5" r="0.5"/>
                    </pattern>
                   <pattern id="Grid16x16Pattern" x="0" y="0" width="16" height="16" patternUnits="userSpaceOnUse">
                        <rect fill="#FCFAF5" stroke="none" width="16" height="16"/>
                        <circle fill="#A29FA7" cx="0.5" cy="0.5" r="0.5"/>
                    </pattern>
                    <marker id="SolidArrowHead"
                        viewBox="0 0 10 10" refX="10" refY="5" 
                        markerUnits="strokeWidth"
                        markerWidth="8" markerHeight="6"
                        orient="auto">
                        <path fill="&wireStrokeColor;" stroke="&wireStrokeColor;" d="M 0 0 L 10 5 L 0 10 z" />
                    </marker>
                    <marker id="WhiteArrowHead"
                        viewBox="0 0 10 10" refX="10" refY="5" 
                        markerUnits="strokeWidth"
                        markerWidth="8" markerHeight="6"
                        orient="auto">
                        <path fill="white" stroke="&wireStrokeColor;" d="M 0 0 L 10 5 L 0 10 z" />
                    </marker>
                    <marker id="OpenArrowHead"
                        viewBox="0 0 10 10" refX="10" refY="5" 
                        markerUnits="strokeWidth"
                        markerWidth="8" markerHeight="6"
                        orient="auto">
                        <path fill="none" stroke="&wireStrokeColor;" d="M 0 0 L 10 5 L 0 10" />
                    </marker>
                   <marker id="WhiteCircleHead"
                        viewBox="0 0 10 10" refX="0" refY="5" 
                        markerUnits="strokeWidth"
                        markerWidth="8" markerHeight="6"
                        orient="auto">
                        <circle fill="white" stroke="&wireStrokeColor;" cx="5" cy="5" r="4" />
                    </marker>
                   <marker id="BackSlash"
                        viewBox="0 0 10 10" refX="-5" refY="5" 
                        markerUnits="strokeWidth"
                        markerWidth="8" markerHeight="16"
                        orient="auto">
                        <line fill="none" stroke="&wireStrokeColor;" x1="0" y1="0" x2="10" y2="10" />
                    </marker>                   
                    <filter id="LightDropShadowFilter" filterUnits="objectBoundingBox" x="-5%" y="-5%" width="135%" height="125%">
                        <!-- Create a region of color -->
			<feFlood in="SourceGraphic" flood-color="#999999" result="flood"/>
			<!-- Mask the region according to the source graphic -->
			<feComposite in="flood" in2="SourceAlpha" operator="in" result="flood"/>
			<!-- Turn the cutout region into a shadow -->
			<feGaussianBlur in="flood" stdDeviation="3" result="blur"/>
			<feOffset in="blur" dx="3" dy="3" result="offsetBlur"/>
			<feMerge>
				<feMergeNode in="offsetBlur"/>
				<feMergeNode in="SourceGraphic"/>
			</feMerge>
                    </filter>
                    <filter id="DarkDropShadowFilter" filterUnits="objectBoundingBox" x="-5%" y="-5%" width="135%" height="125%">
                        <!-- Create a region of color -->
			<feFlood in="SourceGraphic" flood-color="#FFFFFF" result="flood"/>
			<!-- Mask the region according to the source graphic -->
			<feComposite in="flood" in2="SourceAlpha" operator="in" result="flood"/>
			<!-- Turn the cutout region into a shadow -->
			<feGaussianBlur in="flood" stdDeviation="4" result="blur"/>
			<feOffset in="blur" dx="5" dy="5" result="offsetBlur"/>
			<feMerge>
				<feMergeNode in="Blur"/>
				<feMergeNode in="SourceGraphic"/>
			</feMerge>
                    </filter>
                    <filter id="Glow" filterUnits="objectBoundingBox" x="-50%" y="-50%" width="200%" height="200%">
			<!-- Create a region of color -->
			<feFlood in="SourceGraphic" flood-color="#FF9966" result="flood"/>
			<!-- Mask the region according to the source graphic -->
			<feComposite in="flood" in2="SourceAlpha" operator="in" result="flood"/>
			<!-- Turn the cutout region into a shadow -->
			<feGaussianBlur in="flood" stdDeviation="5" result="blur"/>
			<feMerge>
				<feMergeNode in="blur"/>
				<feMergeNode in="SourceGraphic"/>
			</feMerge>
                    </filter>
                    <filter id="GreenGlow" filterUnits="objectBoundingBox" x="-50%" y="-50%" width="200%" height="200%">
			<!-- Create a region of color -->
			<feFlood in="SourceGraphic" flood-color="green" result="flood"/>
			<!-- Mask the region according to the source graphic -->
			<feComposite in="flood" in2="SourceAlpha" operator="in" result="flood"/>
			<!-- Turn the cutout region into a shadow -->
			<feGaussianBlur in="flood" stdDeviation="5" result="blur"/>
			<feMerge>
				<feMergeNode in="blur"/>
				<feMergeNode in="SourceGraphic"/>
			</feMerge>
                    </filter>
	           <linearGradient id="PoolNameColor" gradientUnits="objectBoundingBox">
			<stop  offset="0" style="stop-color:#A9CDE8"/>
			<stop  offset="0.0843" style="stop-color:#DDEBF6"/>
			<stop  offset="0.1798" style="stop-color:#FFFFFF"/>
			<stop  offset="0.7416" style="stop-color:#DCE3EF"/>
			<stop  offset="0.9045" style="stop-color:#E7F1F9"/>
                    </linearGradient>    
                    <linearGradient id="NotationColor" gradientUnits="objectBoundingBox" gradientTransform="rotate(90)">
			<stop  offset="0" style="stop-color:#A9CDE8"/>
			<stop  offset="0.0843" style="stop-color:#DDEBF6"/>
			<stop  offset="0.1798" style="stop-color:#FFFFFF"/>
			<stop  offset="0.7416" style="stop-color:#DCE3EF"/>
			<stop  offset="0.9045" style="stop-color:#E7F1F9"/>
                    </linearGradient>
                    <linearGradient id="BreakpointColor" gradientUnits="objectBoundingBox" gradientTransform="rotate(90)">
                        <stop  offset="0.0" style="stop-color:#F4D2D7"/>
                        <stop  offset="0.1966" style="stop-color:#FFFFFF"/>
			<stop  offset="0.6685" style="stop-color:#FCC8C8"/>
			<stop  offset="0.7416" style="stop-color:#FCC8C8"/>
                        <stop  offset="1" style="stop-color:#FFFFFF"/>
                    </linearGradient>
                    <symbol id="EventSymbol">
                    </symbol>
                    <symbol id="MessageSymbol" width="15.238" height="9.773"
                        viewBox="0 0 15.238 9.773" overflow="visible" enable-background="new 0 0 15.238 9.773" xml:space="preserve">
                        <g transform="translate(299.331,-399.9775)">
                            <path fill="none" stroke="#5668CA" d="M-291.381,404.186c0,0.454-0.369,0.821-0.824,0.821h-13.354
                                c-0.454,0-0.822-0.366-0.822-0.821v-7.596c0-0.456,0.368-0.825,0.822-0.825h13.354c0.456,0,0.824,0.369,0.824,0.825V404.186z"/>
                                <polyline fill="none" stroke="#5668CA" points="-306.381,396.591 -298.88,401.718 -291.381,396.591 	"/>
                        </g>
                    </symbol>
                    <symbol id="CompensationSymbol" width="15" height="13.607" viewBox="0 0 15 13.607"
                        overflow="visible" enable-background="new 0 0 15 13.607" xml:space="preserve">
                        <g transform="translate(-8, -6)">
                            <path fill="#5668CA" d="M4.766,0.713c1.24-1.24,2.254-0.82,2.254,0.935v10.312c0,1.757-1.014,2.175-2.254,0.936L0.93,8.42
                                c-1.239-1.239-1.239-1.994,0-3.234L4.766,0.713z"/>
                            <path fill="#5668CA" d="M12.745,0.713C13.986-0.527,15-0.107,15,1.647v10.312c0,1.757-1.014,2.175-2.255,0.936L8.909,8.42
                                c-1.237-1.239-1.237-1.994,0-3.234L12.745,0.713z"/>
                        </g>
                    </symbol>
                    <symbol id="TimerSymbol" width="16" height="16" viewBox="0 0 16 16"
                        overflow="visible" enable-background="new 0 0 16 16" xml:space="preserve">
                        <g transform="translate(-8, -8)">
                            <circle fill="none" stroke="#5668CA" cx="8" cy="8" r="8"/>
                            <line fill="none" stroke="#5668CA" x1="8" y1="8" x2="8" y2="1.796"/>
                            <line fill="none" stroke="#5668CA" x1="8" y1="8" x2="11.727" y2="8"/>
                        </g>
                    </symbol>
                    <symbol id="ErrorSymbol" width="11.691" height="16" viewBox="0 0 11.691 16"
                        overflow="visible" enable-background="new 0 0 11.691 16" xml:space="preserve">
                        <polygon transform="translate(-5, -8)" fill="#5668CA" points="0,16 1.641,2.666 7.589,7.795 11.691,0 9.641,12.719 3.281,7.385 "/>
                    </symbol>
                    <symbol id="CancelSymbol" width="612" height="792" viewBox="0 0 612 792"
                        overflow="visible" enable-background="new 0 0 612 792" xml:space="preserve">
                        <g transform="translate(1, -790.774)">
                            <rect x="-2.621" y="783.014" transform="matrix(0.7072 0.707 -0.707 0.7072 559.4376 232.0874)" fill="#5668CA" width="4.242" height="16.971"/>
                            <rect x="-2.621" y="783.014" transform="matrix(-0.7072 0.707 -0.707 -0.7072 558.7302 1351.6196)" fill="#5668CA" width="4.242" height="16.971"/>
                        </g>
                    </symbol>
                    <symbol id="RuleSymbol" width="16" height="16" viewBox="0 0 16 16"
                        overflow="visible" enable-background="new 0 0 16 16" xml:space="preserve">
                        <g transform="translate(-8, -8)">
                            <rect x="0.5" y="0.5" fill="none" stroke="#5668CA" width="15" height="15"/>
                            <line fill="none" stroke="#5668CA" x1="1.75" y1="12.75" x2="13.75" y2="12.75"/>
                            <line fill="none" stroke="#5668CA" x1="1.75" y1="9.75" x2="13.75" y2="9.75"/>
                            <line fill="none" stroke="#5668CA" x1="1.75" y1="3.25" x2="13.75" y2="3.25"/>
                            <line fill="none" stroke="#5668CA" x1="1.75" y1="5.5" x2="13.75" y2="5.5"/>
                        </g>
                    </symbol>
                    <symbol id="MultipleSymbol" width="17.059" height="19.613"
                         viewBox="0 0 17.059 19.613" overflow="visible" enable-background="new 0 0 17.059 19.613" xml:space="preserve">
                        <path transform="translate(-8.477, -10)" fill="#5668CA" d="M14.292,10.612l2.606,3.561c0.324,0.443,0.143,0.758-0.403,0.697l-4.387-0.477
                        c-0.546-0.059-1.175,0.303-1.396,0.807l-1.779,4.036c-0.223,0.503-0.586,0.503-0.807,0L6.347,15.2
                        c-0.223-0.504-0.851-0.865-1.396-0.807L0.564,14.87c-0.547,0.061-0.727-0.254-0.402-0.697l2.605-3.561
                        c0.324-0.442,0.324-1.168,0-1.612L0.162,5.441c-0.324-0.444-0.145-0.758,0.402-0.699l4.387,0.479
                        c0.546,0.059,1.174-0.305,1.396-0.808l1.779-4.036c0.221-0.503,0.584-0.503,0.807,0l1.779,4.036c0.221,0.503,0.85,0.866,1.396,0.808
                        l4.387-0.479c0.546-0.059,0.728,0.255,0.403,0.699"/>
                    </symbol>
                    <symbol id="LinkSymbol" width="15" height="13.785" viewBox="0 0 15 13.785"
                        overflow="visible" enable-background="new 0 0 15 13.785" xml:space="preserve">
                        <polygon transform="translate(-7.0, -6.0)" fill="#5668CA" points="15,6.893 8.21,0 8.21,3.838 0,3.838 0,9.446 8.21,9.446 8.21,13.785 "/>
                    </symbol>
                    <symbol id="TerminateSymbol" width="15" height="15" viewBox="0 0 15 15"
                        overflow="visible" enable-background="new 0 0 15 15" xml:space="preserve">
                        <g>
                            <circle fill="#5668CA" cx="0.5" cy="0.5" r="7.5"/>
                        </g>
                    </symbol>
                    <symbol id="DataXORSymbol" width="9.258" height="9.578"
                        viewBox="0 0 9.258 9.578" overflow="visible" enable-background="new 0 0 9.258 9.578" xml:space="preserve">
                        <g transform="scale(0.9, 0.9) translate(-4.3745, -4.5345)">
                            <path fill="#5668CA" d="M8.431,14.769l-2.027-3.614c-0.829-1.393-1.357-2.426-1.99-3.581H4.346c-0.463,1.155-1.028,2.188-1.76,3.581l-1.827,3.614
                                h-5.776L1.457,4.67l-6.241-9.86h5.81l1.959,3.643c0.666,1.213,1.163,2.19,1.694,3.317h0.067c0.528-1.272,0.963-2.163,1.523-3.317
                                L8.167-5.19h5.779L7.633,4.551l6.643,10.218H8.431z"/>
                        </g>
                    </symbol>
                    <symbol id="ANDSymbol" width="20" height="20" viewBox="0 0 20 20"
                        overflow="visible" enable-background="new 0 0 20 20" xml:space="preserve">
                            <g transform="translate(-10, -10)">
                                <polygon fill="#5668CA" points="20,7.5 12.5,7.5 12.5,0 7.5,0 7.5,7.5 0,7.5 0,12.5 7.5,12.5 7.5,20 12.5,20 12.5,12.5 20,12.5 		
                                "/>
                            </g>
                    </symbol>
                    <symbol id="ComplexSymbol" width="612" height="792" viewBox="0 0 612 792"
                        overflow="visible" enable-background="new 0 0 612 792" xml:space="preserve">
                        <g transform=" scale(1.5, 1.5) translate(0.5, -791)">
                            <polygon fill="#5668CA" points="7,793.467 7,790.422 1,790.424 1,784.47 -2.044,784.469 -2.045,790.424 -8,790.425 -7.999,793.469 
                                -2.046,793.468 -2.046,798.53 0.997,798.531 0.999,793.467 	"/>
                            <polygon fill="#5668CA" points="3.86,797.861 6.012,795.708 1.77,791.466 5.979,787.255 3.828,785.103 -0.384,789.312 
                                -4.595,785.103 -6.748,787.256 -2.538,791.465 -6.781,795.708 -4.629,797.861 -0.384,793.617 	"/>
                        </g>
                    </symbol>
                    <symbol id="EventXORSymbol" width="16" height="16" viewBox="0 0 16 16"
                        overflow="visible" enable-background="new 0 0 16 16" xml:space="preserve">
                        <g transform="scale(1.5, 1.5) translate(-8.0, -8.0)">
                            <path fill="none" stroke="#5668CA" d="M15.5,8c0,4.139-3.358,7.5-7.5,7.5c-4.142,0-7.5-3.361-7.5-7.5c0-4.14,3.358-7.5,7.5-7.5
                                C12.142,0.5,15.5,3.86,15.5,8z"/>
                            <circle fill="none" stroke="#5668CA" cx="8" cy="8" r="6.207"/>
                            <path fill="#5668CA" d="M7.954,3.275c0.112-0.254,0.294-0.254,0.407,0l0.894,2.021c0.111,0.254,0.426,0.439,0.699,0.41l2.203-0.242
                                c0.275-0.03,0.366,0.125,0.205,0.351l-1.311,1.787c-0.161,0.226-0.161,0.589,0,0.812l1.311,1.788c0.161,0.221,0.07,0.38-0.205,0.35
                                l-2.203-0.242c-0.273-0.03-0.587,0.156-0.699,0.406l-0.894,2.024c-0.113,0.255-0.295,0.255-0.407,0l-0.893-2.024
                                c-0.112-0.25-0.427-0.437-0.7-0.406l-2.203,0.242c-0.276,0.03-0.366-0.129-0.204-0.35l1.311-1.788c0.161-0.224,0.161-0.587,0-0.812
                                L3.954,5.815C3.792,5.59,3.882,5.435,4.158,5.465l2.203,0.242c0.272,0.029,0.588-0.156,0.7-0.41L7.954,3.275z"/>
                        </g>
                    </symbol>
                    <symbol id="ORSymbol" width="15" height="15" viewBox="0 0 15 15"
                        overflow="visible" enable-background="new 0 0 15 15" xml:space="preserve">
                        <g transform="scale(1.4, 1.4) translate(-7.5, -7.5)">
                            <circle fill="none" stroke="#5668CA" stroke-width="3" cx="7.5" cy="7.5" r="7"/>
                        </g>
                    </symbol>
                </defs>
		<g id="TopPanelGroup" transform="translate(0, 0)" visibility="hidden">
                       <rect id="Grid" fill="url(#Grid16x16Pattern)" x="0" y="0" 
                            width="1200" height="1200"/>                        
                 </g>
</svg>
